<svg width="78" height="46" viewBox="0 0 78 46" fill="none" xmlns="http://www.w3.org/2000/svg">
    <g clip-path="url(#clip0_3105_240)">
        <path fill-rule="evenodd" clip-rule="evenodd"
              d="M50.1675 11.1411C46.0054 13.8352 42.4058 17.5478 39 21.2175C37.0343 19.0995 35.004 16.9671 32.8383 15.0246L31.1212 16.6631C32.4052 17.8081 33.6596 19.041 34.9031 20.3241L34.9126 20.3147L39.0057 24.6409L41.7401 21.713L41.7561 21.7287C44.8751 18.4181 48.0194 15.339 51.4919 13.0957L50.1675 11.1411ZM55.6636 10.9117C57.9401 9.99954 60.3789 9.4769 63.0466 9.4769C67.2904 9.4769 70.4005 11.1563 72.4697 13.6341C74.5613 16.1388 75.6383 19.5233 75.6383 22.9558C75.6383 26.3882 74.5613 29.7727 72.4697 32.2774C70.4005 34.7552 67.2904 36.4346 63.0466 36.4346C55.2359 36.4346 49.3875 31.9543 43.8267 26.3334L42.2105 28.064C47.8804 33.7901 54.3294 38.7963 63.0466 38.7963C67.9845 38.7963 71.7607 36.8108 74.2824 33.7912C76.7816 30.7985 78 26.8532 78 22.9558C78 19.0584 76.7816 15.113 74.2824 12.1203C71.7607 9.10073 67.9845 7.11523 63.0466 7.11523C59.8556 7.11523 56.9685 7.78606 54.3123 8.91747L55.6636 10.9117ZM35.7541 28.0997C30.0928 33.8109 23.6525 38.7963 14.9534 38.7963C10.0155 38.7963 6.23931 36.8108 3.71763 33.7912C1.21845 30.7985 0 26.8532 0 22.9558C0 19.0584 1.21845 15.113 3.71763 12.1203C6.23931 9.10073 10.0155 7.11523 14.9534 7.11523C20.4777 7.11523 25.091 9.12572 29.1723 12.0558L27.4316 13.7168C23.7487 11.1426 19.7158 9.4769 14.9534 9.4769C10.7096 9.4769 7.59954 11.1563 5.53034 13.6341C3.43866 16.1388 2.36167 19.5233 2.36167 22.9558C2.36167 26.3882 3.43866 29.7727 5.53034 32.2774C7.59954 34.7552 10.7096 36.4346 14.9534 36.4346C22.7425 36.4346 28.5801 31.979 34.1271 26.3801L35.7541 28.0997Z"
              fill="#3B8646"/>
    </g>
    <defs>
        <clipPath id="clip0_3105_240">
            <rect width="78" height="46" fill="white"/>
        </clipPath>
    </defs>
</svg>
