<svg xmlns="http://www.w3.org/2000/svg" version="1.1" xmlns:xlink="http://www.w3.org/1999/xlink" width="727" height="799"><svg width="727" height="799" viewBox="0 0 727 799" xmlns="http://www.w3.org/2000/svg">
    <g id="SvgjsG1431">
        <path id="SvgjsPath1430" fill="#000000" stroke="none" d="M 266.199951 1.666626 C 253.266724 4.06665 240.466675 8.733276 230.733276 14.466675 C 220.466675 20.466675 200.199951 41 194.333374 51.133301 L 189.800049 59.266724 L 181 60.06665 C 170.599976 61 153.533325 66.733276 142.733276 73.133301 C 138.466675 75.666626 129.800049 82.866699 123.533325 89.133301 C 113.666626 98.866699 111.133301 102.466675 105.266724 114.466675 C 97.133301 131 93.666626 145.800049 94.599976 160.466675 L 95.266724 170.199951 L 90.466675 173.400024 C 81.533325 179.266724 70.466675 190.466675 64.333374 199.666626 C 49.800049 221.400024 45.400024 249.93335 52.733276 273.800049 L 55.133301 281.666626 L 45.93335 291 C -2.06665 339.133301 -13.400024 417.266724 19.533325 471.93335 L 24.733337 480.333374 L 22.06665 490.333374 C 18.200012 505.133301 19.266663 530.733276 24.200012 546.333374 C 32.466675 571.93335 50.06665 593.266724 73.800049 606.466675 L 83.266724 611.666626 L 82.599976 618.199951 C 82.333374 621.666626 82.733276 629.800049 83.533325 636.199951 C 88.199951 671.133301 109.666626 699.400024 141.133301 711.666626 C 148.866699 714.733276 165.93335 718.333374 172.599976 718.333374 L 177.666626 718.333374 L 184.333374 732.733276 C 200.333374 767.266663 217.400024 783.799988 247 793.799988 C 266.866699 800.466675 294.06665 799.533325 312.599976 791.533325 C 331 783.666687 347.133301 765.799988 353 746.599976 C 355.400024 738.733276 355.666626 734.199951 355.666626 687.400024 L 355.666626 636.599976 L 330.333374 610.333374 L 305 583.93335 L 305 543.93335 L 305 503.800049 L 310.733276 501.266724 C 329.533325 493 333.266724 467.533325 317.93335 453.400024 C 310.599976 446.733276 304.06665 444.466675 294.733276 445.400024 C 285.133301 446.466675 276.599976 451.533325 272.199951 459 C 268.733276 465 268.733276 465 261.533325 465 L 254.333374 465 L 240.466675 450.733276 L 226.599976 436.599976 L 225.666626 412.466675 C 225.133301 399.133301 224.06665 387.533325 223.400024 386.599976 C 222.333374 385.400024 207.533325 385 157.666626 385 L 93.266724 385 L 79.533325 369.666626 C 67.533325 356.333374 65.266724 354.333374 61.533325 354.333374 C 59.266724 354.333374 56.466675 355.400024 55.266724 356.733276 C 50.733276 361.800049 52.333374 365 69.133301 383.266724 L 85.266724 401 L 147.133301 401 L 209 401 L 209 421.666626 L 209 442.199951 L 228.466675 462.333374 L 247.93335 482.333374 L 258.333374 482.333374 L 268.599976 482.333374 L 271 487.666626 C 273.533325 493.266724 280.333374 500.199951 285.800049 502.599976 L 289 504.06665 L 289 547.93335 L 289 591.93335 L 314.333374 618.06665 L 339.666626 644.199951 L 339.266724 691.666626 L 339 739 L 334.733276 748.06665 C 322.199951 774.466675 289.666626 787.799988 257.800049 779.666687 C 242.733276 775.799988 232.466675 769.93335 220.866699 758.333313 C 206.866699 744.466675 198.599976 728.599976 182.866699 685.400024 L 177 669 L 185.400024 661 C 190.06665 656.599976 195 651 196.333374 648.466675 C 198.599976 644.199951 198.733276 643.666626 196.599976 640.466675 C 195.266724 638.599976 192.733276 636.599976 190.866699 636.199951 C 187.800049 635.400024 185.800049 636.866699 174.199951 648.466675 C 166.866699 655.800049 160.599976 663.133301 160.06665 664.866699 C 159.533325 666.866699 161.266724 673.800049 164.866699 684.199951 C 167.93335 693.133301 170.333374 700.733276 170.333374 701.133301 C 170.333374 702.599976 157 699.666626 148.06665 696.333374 C 119.266724 685.400024 100.866699 659.400024 99.400024 627.666626 L 99 619 L 103 619.266724 C 138.466675 622.06665 149.800049 620.866699 167.133301 612.466675 C 177.266724 607.533325 192.333374 596.866699 194.333374 593 C 196.466675 589.133301 195.93335 585.266724 193 582.333374 C 188.866699 578.199951 185.400024 579.133301 177.800049 585.93335 C 163.800049 598.599976 142.599976 605.800049 123 604.599976 C 100.06665 603.266724 78.333374 593.266724 61.666626 576.466675 C 51 565.666626 45 556.199951 39.93335 542.06665 C 36.866699 533.533325 36.466675 530.199951 36.333374 515.666626 C 36.333374 506.466675 36.733276 498.06665 37.133301 497 C 37.93335 495.266724 43.93335 495 82.733276 495.400024 L 127.400024 495.800049 L 128.199951 499.133301 C 129.533325 504.06665 138.333374 513.133301 144.733276 515.93335 C 149 517.800049 152.733276 518.466675 158.333374 518.06665 L 166.199951 517.666626 L 202.866699 555.266724 L 239.666626 592.866699 L 239.666626 625.800049 L 239.666626 658.599976 L 250.733276 670.06665 C 256.733276 676.199951 261 681.666626 260.199951 681.93335 C 253.533325 684.333374 246.333374 690.733276 243.133301 697.133301 C 231.266724 721 252.333374 746.333313 278.06665 739 C 296.466675 733.666626 305.133301 712.733276 296.06665 695.800049 C 293.93335 691.93335 284.733276 681.266724 274.733276 671 L 257 652.866699 L 257 619.533325 L 257 586.333374 L 226.06665 554.599976 C 209 537.266724 191.93335 519.666626 188.06665 515.533325 L 180.866699 508.199951 L 183.533325 502.199951 C 187 494.733276 187.133301 483.533325 183.800049 476.333374 C 179 465.666626 167.400024 458.333374 155.666626 458.333374 C 146.199951 458.333374 129 469.93335 129 476.333374 C 129 478.06665 122.866699 478.333374 86.06665 478.333374 L 43 478.333374 L 38.06665 470.599976 C 25.799988 451.533325 19 430.599976 17.533325 407 C 15.666687 377.666626 23.666687 349 41.266724 322.333374 C 47.533325 312.733276 62.866699 296.466675 64.866699 297.266724 C 65.666626 297.400024 77 308.06665 90.333374 320.599976 L 114.466675 343.666626 L 145 343.666626 C 173.93335 343.666626 175.800049 343.533325 178.333374 341 C 179.800049 339.533325 181 336.866699 181 335 C 181 333.133301 179.800049 330.466675 178.333374 329 C 175.800049 326.466675 173.93335 326.333374 148.599976 326.333374 L 121.533325 326.333374 L 116.333374 320.866699 L 111 315.533325 L 121.400024 305.93335 C 130.06665 297.93335 131.800049 295.666626 131.666626 292.199951 C 131.666626 289.93335 130.599976 287.133301 129.266724 285.93335 C 124.599976 281.666626 121.133301 283.266724 109.266724 294.466675 L 97.93335 305.266724 L 84.866699 292.199951 C 69.533325 276.866699 67.800049 273.266724 66.733276 253.93335 C 65.400024 230.199951 71.133301 215 87.666626 197.93335 C 93.266724 192.333374 98.599976 187.666626 99.666626 187.800049 C 100.733276 187.800049 104.733276 192.06665 108.333374 197.400024 C 114.06665 205.666626 115.666626 207 119.400024 207.400024 C 125.133301 207.93335 129 204.599976 129 199.400024 C 129 196.599976 127.133301 193.400024 123 188.599976 C 119.666626 184.733276 117 181 117 180.199951 C 117 179.266724 120.06665 178.199951 124.06665 177.666626 C 132.333374 176.466675 135.133301 175.266724 137.133301 171.533325 C 139.133301 167.666626 136.333374 161.266724 132.06665 160.199951 C 128.866699 159.400024 120.599976 160.06665 114.733276 161.800049 C 111.800049 162.599976 111.666626 162.333374 111.666626 152.866699 C 111.800049 127.93335 129.666626 99.266724 152.866699 87.133301 C 163.93335 81.400024 175.93335 77 180.866699 77 L 184.333374 77 L 183.93335 149.93335 C 183.666626 216.466675 183.800049 223 185.800049 225.266724 C 188.733276 228.466675 193.666626 228.333374 197 225 C 199.533325 222.466675 199.666626 220.599976 199.666626 155 C 199.666626 111.666626 200.199951 85.266724 201.133301 80.733276 C 206.466675 54.866699 230.733276 29.666626 259 20.466675 C 284.866699 12.199951 309.800049 17.133301 324.333374 33.266724 C 327.800049 37.133301 331.800049 42.599976 333.266724 45.400024 C 339.266724 57.266724 339.666626 63 339.666626 156.466675 L 339.666626 244.599976 L 300.333374 283.800049 L 261 323 L 261 331.266724 C 261 338.599976 261.400024 339.800049 264.333374 341.800049 C 266.466675 343.266724 268.866699 343.666626 271.666626 343 C 276.199951 342.06665 278.333374 339 278.333374 333.400024 C 278.333374 330.333374 283.400024 324.599976 308.06665 299.93335 C 324.333374 283.666626 338.199951 270.333374 338.733276 270.333374 C 339.266724 270.333374 339.666626 286.733276 339.666626 306.866699 L 339.666626 343.266724 L 323.666626 359.133301 C 306.466675 376.199951 304.866699 379.533325 310.333374 385 C 315.800049 390.466675 318.866699 388.866699 337.93335 370.06665 L 355.666626 352.466675 L 355.666626 207 C 355.666626 47.533325 355.93335 54.599976 347.666626 37.666626 C 333.666626 9.266724 301.400024 -5 266.199951 1.666626 Z M 306.466675 466.199951 C 312.733276 472.599976 311.533325 481.666626 303.666626 485.666626 C 297.800049 488.733276 293.266724 488.199951 288.866699 483.800049 C 283.666626 478.599976 283.400024 470.466675 288.333374 465.666626 C 293.133301 460.733276 301.266724 461 306.466675 466.199951 Z M 165.666626 479.133301 C 170.333374 484.199951 170.333374 493.133301 165.666626 497.666626 C 158.06665 505.400024 143.666626 499.266724 143.666626 488.333374 C 143.666626 477.266724 158.333374 471.133301 165.666626 479.133301 Z M 276.866699 699 C 284.866699 703 285.400024 714.199951 277.93335 720.466675 C 269.400024 727.666626 257 721.533325 257 710.199951 C 257 699.800049 267.266724 693.93335 276.866699 699 Z"></path>
        <path id="SvgjsPath1429" fill="#000000" stroke="none" d="M 435 2.866699 C 415.133301 6.599976 397 19.533325 388.06665 36.333374 C 381.266724 49.133301 379.666626 58.06665 379.666626 81.533325 L 379.666626 102.333374 L 412.333374 102.333374 L 444.866699 102.333374 L 447.133301 97.666626 C 450.199951 91.266724 458.466675 84.333374 465.666626 82.333374 C 497.400024 73.400024 519.533325 112.599976 495 134.06665 C 492.466675 136.466675 488.733276 138.733276 487 139.133301 L 483.666626 139.93335 L 483.666626 165.800049 C 483.666626 189.93335 483.533325 191.800049 481 194.333374 C 477.133301 198.199951 471.133301 197.800049 467.666626 193.266724 C 464.733276 189.800049 464.733276 189 465.533325 165.400024 L 466.466675 141.133301 L 461.93335 139.266724 C 456.466675 136.866699 448.599976 129 446.333374 123.666626 L 444.733276 119.666626 L 412.199951 119.666626 L 379.666626 119.666626 L 379.666626 144.599976 L 379.666626 169.666626 L 399.93335 187.666626 C 411 197.533325 427.266724 212.199951 435.93335 220.06665 L 451.666626 234.466675 L 451.666626 297.800049 L 451.666626 361 L 456.733276 363 C 477.133301 371.533325 481.133301 400.06665 463.93335 414.333374 C 450.333374 425.533325 432.199951 423.800049 420.599976 410.199951 C 408.333374 395.93335 411.666626 376.466675 428.466675 364.599976 L 434.333374 360.466675 L 434.333374 301 L 434.333374 241.533325 L 408.333374 218.599976 C 394.06665 205.93335 381.666626 195.266724 380.733276 195 C 379.266724 194.466675 379.133301 233.800049 379.400024 396.599976 C 379.533325 507.93335 379.800049 605.133301 380.06665 612.599976 L 380.333374 626.199951 L 402.199951 604.599976 L 423.93335 583 L 423.93335 546.333374 C 423.93335 526.199951 424.199951 507.666626 424.599976 505.266724 C 425.266724 501.400024 429.400024 497.400024 456.199951 475.133301 C 473.133301 461.133301 491.400024 446.06665 496.733276 441.666626 L 506.333374 433.800049 L 506.333374 409.533325 C 506.333374 385.800049 506.466675 385.133301 509.266724 383.133301 C 511.93335 381.266724 520.733276 381 578.333374 381 L 644.333374 381 L 657.666626 367.666626 C 671.666626 353.666626 675.533325 351.666626 679.93335 356.599976 C 685.533325 363 684.866699 364.199951 667.533325 381.800049 L 651.133301 398.333374 L 587.400024 398.333374 L 523.666626 398.333374 L 523.666626 418.866699 C 523.666626 436.466675 523.266724 439.800049 521.400024 442.199951 C 520.06665 443.800049 501.666626 459.533325 480.466675 477.400024 L 441.800049 509.666626 L 442.06665 549.666626 L 442.199951 589.666626 L 410.866699 620.333374 L 379.533325 651.133301 L 379.93335 698.333374 L 380.333374 745.666687 L 385.266724 756.06665 C 403.666626 794.466675 451.93335 809.266663 493.666626 789.266663 C 512.866699 779.93335 526.733276 765.666687 535.533325 746.06665 C 537.666626 741.533325 543.133301 724.466675 547.666626 708.333374 C 552.199951 692.199951 556.866699 676.733276 557.800049 674.06665 L 559.533325 669 L 550.333374 659 C 540.599976 648.599976 539.533325 645.666626 543.400024 641.266724 C 548.199951 635.666626 551 636.199951 559.800049 644.599976 C 564.333374 648.866699 570.333374 655.133301 573.133301 658.466675 L 578.333374 664.733276 L 571 688.866699 C 567 702.199951 563.666626 713.400024 563.666626 713.800049 C 563.666626 715.400024 578.333374 713 586.733276 710.199951 C 621.133301 698.599976 646.333374 663.93335 646.333374 628.199951 L 646.333374 617.400024 L 639.400024 619.400024 C 628.866699 622.333374 598.733276 622.333374 587.666626 619.266724 C 574.599976 615.800049 555.93335 606.06665 547.800049 598.466675 C 541.400024 592.599976 540.733276 591.400024 541.666626 588.06665 C 543.93335 579 549.400024 578.599976 560.199951 587 C 584.733276 605.93335 615.533325 610.06665 648.199951 598.466675 C 660.866699 594.06665 670.199951 587.800049 682.333374 575.666626 C 694.866699 563.133301 701.800049 551.266724 705.93335 535.666626 C 708.199951 526.466675 709 506.466675 707.266724 497.93335 L 706.199951 493 L 657.133301 493 L 607.93335 493 L 607.133301 495.93335 C 604.599976 505.93335 589.800049 515.666626 576.866699 515.666626 L 569.533325 515.666626 L 530.599976 553.800049 L 491.800049 591.93335 L 491.400024 625.133301 L 491 658.333374 L 479.133301 670.199951 L 467.266724 682.06665 L 472.333374 686.599976 C 478.199951 691.666626 483.666626 702.333374 483.666626 708.866699 C 483.666626 725.266724 468.199951 741 452.06665 741 C 441.666626 741 430.06665 733.533325 425.133301 723.666626 C 417.400024 708.333374 423.666626 689.93335 439.266724 682.06665 C 443.133301 680.199951 451.400024 673 460.06665 664.333374 L 474.333374 649.800049 L 474.333374 617.800049 L 474.333374 585.800049 L 500.866699 560.06665 C 515.400024 545.800049 533.400024 527.800049 540.733276 519.800049 L 554.199951 505.400024 L 550.866699 499 C 544.466675 486.333374 547.533325 471.266724 558.199951 462.06665 C 572.599976 449.800049 594.06665 453.133301 604.06665 469.133301 L 608.06665 475.666626 L 656.199951 475.400024 L 704.333374 475 L 708.599976 468.333374 C 714.06665 460.06665 720.199951 445.400024 724.06665 431.93335 C 726.466675 423.266724 726.866699 418.06665 726.866699 399 C 726.733276 378.866699 726.466675 374.866699 723.400024 363.533325 C 716.866699 339.266724 706.199951 319.133301 691.266724 302.866699 C 686.199951 297.400024 681.266724 293 680.199951 293 C 679.266724 293 665.666626 304.333374 650.199951 318.333374 L 622.199951 343.666626 L 589.266724 343.666626 C 552.199951 343.666626 550.333374 343.266724 550.333374 335.133301 C 550.333374 326.599976 551.666626 326.333374 585.93335 326.333374 L 616.599976 326.333374 L 622.199951 320.333374 C 625.133301 317.133301 627.666626 313.93335 627.666626 313.533325 C 627.666626 313 624.06665 308.866699 619.666626 304.199951 C 615.266724 299.666626 611.666626 294.733276 611.666626 293.400024 C 611.666626 289.93335 617.133301 285 620.866699 285 C 622.866699 285 627.266724 288.199951 633 293.666626 L 641.93335 302.466675 L 655 290.733276 C 662.199951 284.333374 669.800049 277.533325 671.93335 275.666626 C 676.599976 271.666626 678.199951 265.400024 678.333374 251.666626 C 678.466675 217.266724 653.93335 186.599976 621 179.800049 C 611.400024 177.800049 607.666626 175.266724 607.666626 170.599976 C 607.666626 162.599976 612.733276 160.199951 623.93335 162.866699 C 628.599976 163.93335 633.400024 165.266724 634.733276 165.666626 C 636.733276 166.466675 637 165.666626 637 156.866699 C 636.866699 114.866699 606.866699 76.866699 565.266724 66.199951 C 551.133301 62.599976 551.800049 62.333374 553.800049 71.93335 C 555.133301 78.333374 555.666626 98.333374 555.666626 153.266724 L 555.666626 226.06665 L 560.199951 227.666626 C 562.733276 228.466675 567.266724 231.533325 570.199951 234.599976 C 582.733276 247 582.06665 267.800049 568.733276 279 C 561.800049 284.866699 556.199951 286.599976 546.199951 286.06665 C 535.666626 285.533325 528.333374 281.400024 522.733276 272.733276 C 519.400024 267.800049 519 265.93335 519 256.333374 C 519 246.599976 519.400024 244.866699 522.733276 239.800049 C 524.866699 236.733276 529.133301 232.466675 532.333374 230.599976 L 538.199951 227 L 538.333374 153.533325 C 538.333374 84.599976 538.199951 79.400024 535.666626 69.800049 C 527.666626 38.333374 504.06665 13.666626 473.266724 4.599976 C 463.133301 1.533325 445.93335 0.733276 435 2.866699 Z"></path>
        <path id="SvgjsPath1428" fill="#000000" stroke="none" d="M 252.466675 69.533325 C 245.93335 71.93335 238.733276 78.866699 235.533325 85.666626 C 232.599976 92.06665 232.199951 103.266724 234.866699 109.533325 C 237.533325 115.93335 244.466675 123.266724 249.400024 124.866699 L 253.666626 126.333374 L 253.266724 174.599976 L 252.866699 223 L 237.533325 237.666626 C 224.333374 250.333374 222.333374 252.866699 222.333374 256.599976 C 222.333374 261 227.266724 266.333374 231.400024 266.333374 C 232.599976 266.333374 241.800049 258.06665 251.93335 247.93335 L 270.333374 229.533325 L 270.333374 178.06665 L 270.333374 126.599976 L 275 125 C 281.800049 122.733276 289.800049 112.866699 291.800049 104.466675 C 293 98.599976 293 96.199951 291.133301 90.06665 C 290.06665 86.06665 287.800049 81.133301 286.199951 79.266724 C 279.133301 70.06665 263.133301 65.533325 252.466675 69.533325 Z M 271.800049 88.866699 C 275.93335 93.133301 276.866699 98.333374 274.199951 104.199951 C 272.733276 107.266724 265.93335 111.666626 262.333374 111.666626 C 259 111.666626 252.866699 107.400024 251 103.533325 C 244.466675 90.866699 261.666626 78.733276 271.800049 88.866699 Z"></path>
        <path id="SvgjsPath1427" fill="#000000" stroke="none" d="M 467.533325 100.333374 C 463.400024 102.599976 460.333374 109 461.533325 113.400024 C 464.866699 126.599976 481.93335 128.599976 487.133301 116.199951 C 488.733276 112.333374 488.733276 111 487.133301 107.133301 C 483.666626 99 475.400024 96.06665 467.533325 100.333374 Z"></path>
        <path id="SvgjsPath1426" fill="#000000" stroke="none" d="M 176.199951 232.866699 C 161.666626 236.466675 151.666626 249 151.666626 263.800049 C 151.666626 271.400024 158.06665 282.333374 165.266724 287.133301 C 192.599976 305.400024 224.466675 272.333374 205.93335 244.866699 C 200.06665 236.06665 186.06665 230.466675 176.199951 232.866699 Z M 187.666626 251 C 192.466675 253.533325 194.333374 256.733276 194.333374 262.599976 C 194.333374 268.199951 191.666626 272.199951 186.466675 274.333374 C 178.333374 277.666626 169 271.400024 169 262.733276 C 169 256.866699 170.866699 253.533325 175.400024 251.133301 C 180.06665 248.599976 182.866699 248.466675 187.666626 251 Z"></path>
        <path id="SvgjsPath1425" fill="#000000" stroke="none" d="M 543 243.533325 C 535.266724 246.733276 532.06665 258.866699 537.533325 264.866699 C 544.06665 272.06665 555.93335 270.733276 560.333374 262.199951 C 565.93335 251.533325 554.199951 239 543 243.533325 Z"></path>
        <path id="SvgjsPath1424" fill="#000000" stroke="none" d="M 262.199951 353.533325 C 253.93335 355.666626 248.333374 359.93335 244.06665 367.400024 C 238.866699 376.199951 238.733276 388.333374 243.93335 397.133301 C 252.199951 411.133301 269.533325 415.93335 283.800049 408.06665 C 294.199951 402.466675 299.666626 393.533325 299.666626 382.199951 C 299.666626 362.733276 281.133301 348.466675 262.199951 353.533325 Z M 277 371 C 279.400024 372.199951 281.266724 374.466675 281.800049 376.733276 C 282.199951 378.733276 282.733276 381 283 381.800049 C 283.133301 382.466675 282.599976 385.133301 281.533325 387.400024 C 279.533325 392.333374 271.93335 396.333374 267.266724 394.866699 C 259.133301 392.466675 255.133301 383.266724 258.866699 375.93335 C 262.466675 368.866699 269.400024 367 277 371 Z"></path>
        <path id="SvgjsPath1423" fill="#000000" stroke="none" d="M 438.733276 378.333374 C 433.93335 380.199951 430.06665 387.533325 430.866699 392.866699 C 433 407 452.466675 408.599976 457 395.133301 C 459 388.866699 455.93335 382.06665 449.666626 379.133301 C 444.733276 376.733276 443 376.599976 438.733276 378.333374 Z"></path>
        <path id="SvgjsPath1422" fill="#000000" stroke="none" d="M 569.800049 474.466675 C 563.266724 479.533325 563 491.133301 569.400024 495.93335 C 571.133301 497.266724 574.733276 498.333374 578.06665 498.333374 C 591.533325 498.333374 596.599976 482.733276 585.800049 474.06665 C 581.93335 470.866699 574.199951 471 569.800049 474.466675 Z"></path>
        <path id="SvgjsPath1421" fill="#000000" stroke="none" d="M 109.93335 532.06665 C 86.599976 539.400024 82.333374 571.800049 103.133301 585 C 123 597.533325 149.133301 583.400024 149 560.199951 C 148.866699 540.06665 129.400024 526.06665 109.93335 532.06665 Z M 126.866699 549.666626 C 131.666626 552.866699 133.533325 558.466675 131.666626 564.199951 C 127.133301 578.06665 106.333374 574.733276 106.333374 559.93335 C 106.333374 549.800049 118.06665 543.93335 126.866699 549.666626 Z"></path>
        <path id="SvgjsPath1420" fill="#000000" stroke="none" d="M 443.133301 701.133301 C 440.599976 704.06665 439.666626 706.733276 439.666626 710.599976 C 439.666626 721.266724 451.800049 727.533325 459.93335 721 C 470.866699 712.466675 465.93335 697 452.466675 697 C 447.533325 697 446.06665 697.666626 443.133301 701.133301 Z"></path>
    </g>
</svg><style>@media (prefers-color-scheme: light) { :root { filter: none; } }
@media (prefers-color-scheme: dark) { :root { filter: none; } }
</style></svg>