<svg width="1440" height="700" viewBox="0 0 1440 700" fill="none" xmlns="http://www.w3.org/2000/svg">
<line x1="40.5" y1="2.18557e-08" x2="40.5" y2="700" stroke="#F1ABC3"/>
<line x1="520.5" y1="2.18557e-08" x2="520.5" y2="700" stroke="#F1ABC3"/>
<line x1="1001.5" y1="2.18557e-08" x2="1001.5" y2="700" stroke="#F1ABC3"/>
<line x1="280.5" y1="2.18557e-08" x2="280.5" y2="700" stroke="#F1ABC3"/>
<line x1="760.5" y1="2.18557e-08" x2="760.5" y2="700" stroke="#F1ABC3"/>
<line x1="1241.5" y1="2.18557e-08" x2="1241.5" y2="700" stroke="#F1ABC3"/>
<line x1="1440" y1="38.5001" x2="-4.37115e-08" y2="38.4999" stroke="#F1ABC3"/>
<line x1="1440" y1="238.5" x2="-4.37115e-08" y2="238.5" stroke="#F1ABC3"/>
<line x1="1440" y1="439.5" x2="-4.37115e-08" y2="439.5" stroke="#F1ABC3"/>
<line x1="120.5" y1="2.18557e-08" x2="120.5" y2="700" stroke="#F1ABC3"/>
<line x1="600.5" y1="2.18557e-08" x2="600.5" y2="700" stroke="#F1ABC3"/>
<line x1="1081.5" y1="2.18557e-08" x2="1081.5" y2="700" stroke="#F1ABC3"/>
<line x1="360.5" y1="2.18557e-08" x2="360.5" y2="700" stroke="#F1ABC3"/>
<line x1="840.5" y1="2.18557e-08" x2="840.5" y2="700" stroke="#F1ABC3"/>
<line x1="1321.5" y1="2.18557e-08" x2="1321.5" y2="700" stroke="#F1ABC3"/>
<line x1="1440" y1="118.5" x2="-4.37115e-08" y2="118.5" stroke="#F1ABC3"/>
<line x1="1440" y1="318.5" x2="-4.37115e-08" y2="318.5" stroke="#F1ABC3"/>
<line x1="1440" y1="519.5" x2="-4.37115e-08" y2="519.5" stroke="#F1ABC3"/>
<line x1="200.5" y1="2.18557e-08" x2="200.5" y2="700" stroke="#F1ABC3"/>
<line x1="680.5" y1="2.18557e-08" x2="680.5" y2="700" stroke="#F1ABC3"/>
<line x1="1161.5" y1="2.18557e-08" x2="1161.5" y2="700" stroke="#F1ABC3"/>
<line x1="440.5" y1="2.18557e-08" x2="440.5" y2="700" stroke="#F1ABC3"/>
<line x1="920.5" y1="2.18557e-08" x2="920.5" y2="700" stroke="#F1ABC3"/>
<line x1="1401.5" y1="2.18557e-08" x2="1401.5" y2="700" stroke="#F1ABC3"/>
<line x1="1440" y1="198.5" x2="-4.37115e-08" y2="198.5" stroke="#F1ABC3"/>
<line x1="1440" y1="398.5" x2="-4.37115e-08" y2="398.5" stroke="#F1ABC3"/>
<line x1="1440" y1="599.5" x2="-4.37115e-08" y2="599.5" stroke="#F1ABC3"/>
<line x1="1440" y1="682.5" x2="-4.37115e-08" y2="682.5" stroke="#F1ABC3"/>
<line x1="80.5" y1="2.18557e-08" x2="80.5" y2="700" stroke="#F1ABC3"/>
<line x1="560.5" y1="2.18557e-08" x2="560.5" y2="700" stroke="#F1ABC3"/>
<line x1="1041.5" y1="2.18557e-08" x2="1041.5" y2="700" stroke="#F1ABC3"/>
<line x1="320.5" y1="2.18557e-08" x2="320.5" y2="700" stroke="#F1ABC3"/>
<line x1="800.5" y1="2.18557e-08" x2="800.5" y2="700" stroke="#F1ABC3"/>
<line x1="1281.5" y1="2.18557e-08" x2="1281.5" y2="700" stroke="#F1ABC3"/>
<line x1="1440" y1="78.5002" x2="-4.37115e-08" y2="78.5001" stroke="#F1ABC3"/>
<line x1="1440" y1="278.5" x2="-4.37115e-08" y2="278.5" stroke="#F1ABC3"/>
<line x1="1440" y1="479.5" x2="-4.37115e-08" y2="479.5" stroke="#F1ABC3"/>
<line x1="160.5" y1="2.18557e-08" x2="160.5" y2="700" stroke="#F1ABC3"/>
<line x1="640.5" y1="2.18557e-08" x2="640.5" y2="700" stroke="#F1ABC3"/>
<line x1="1121.5" y1="2.18557e-08" x2="1121.5" y2="700" stroke="#F1ABC3"/>
<line x1="400.5" y1="2.18557e-08" x2="400.5" y2="700" stroke="#F1ABC3"/>
<line x1="880.5" y1="2.18557e-08" x2="880.5" y2="700" stroke="#F1ABC3"/>
<line x1="1361.5" y1="2.18557e-08" x2="1361.5" y2="700" stroke="#F1ABC3"/>
<line x1="1440" y1="158.5" x2="-4.37115e-08" y2="158.5" stroke="#F1ABC3"/>
<line x1="1440" y1="358.5" x2="-4.37115e-08" y2="358.5" stroke="#F1ABC3"/>
<line x1="1440" y1="559.5" x2="-4.37115e-08" y2="559.5" stroke="#F1ABC3"/>
<line x1="1440" y1="642.5" x2="-4.37115e-08" y2="642.5" stroke="#F1ABC3"/>
<line x1="240.5" y1="2.18557e-08" x2="240.5" y2="700" stroke="#F1ABC3"/>
<line x1="720.5" y1="2.18557e-08" x2="720.5" y2="700" stroke="#F1ABC3"/>
<line x1="1201.5" y1="2.18557e-08" x2="1201.5" y2="700" stroke="#F1ABC3"/>
<line x1="480.5" y1="2.18557e-08" x2="480.5" y2="700" stroke="#F1ABC3"/>
<line x1="960.5" y1="2.18557e-08" x2="960.5" y2="700" stroke="#F1ABC3"/>
</svg>
