<svg width="33" height="100" viewBox="0 0 33 100" fill="none" xmlns="http://www.w3.org/2000/svg">
<path d="M17.1564 99.0475C17.2513 98.4871 17.3083 97.7526 17.3176 97.1943C17.3209 97.0194 17.2438 97.1079 17.2419 96.9872C17.2376 96.751 17.2928 96.5309 17.281 96.2975C17.2764 96.2201 17.1532 96.3164 17.1504 96.2353C17.1343 95.7908 17.1958 95.3703 17.2021 94.92C17.2258 92.702 17.2674 90.5218 17.2754 88.2767C17.2791 87.5364 17.1421 86.6365 17.2351 85.8719C17.2464 85.7826 17.4076 85.8358 17.4215 85.8189C17.6359 85.5525 17.3038 85.6411 17.2643 85.4671C17.109 84.7769 17.1056 84.0093 17.1848 83.345C17.2189 83.0624 17.5546 83.3458 17.3691 83.0612C17.3565 83.0414 17.1722 83.1132 17.1541 83.0357C17.1133 82.8599 17.1516 82.5264 17.1392 82.3902C17.1142 82.1277 17.1166 82.0842 17.1181 81.8359C17.1187 81.4965 17.0302 81.0927 17.077 80.7285C17.0876 80.6508 17.2804 80.7537 17.3151 80.6297C17.3499 80.5056 17.3379 80.1773 17.2932 80.0667C17.2484 79.956 17.0941 80.0031 17.0591 79.9835C16.7628 79.8223 17.1787 79.4426 17.1898 79.3938C17.3738 78.5029 17.1419 77.739 17.1453 76.9028C17.1488 76.2731 17.2283 75.6003 17.2189 75C17.2188 74.995 17.2187 74.9901 17.2187 74.9851C17.2049 74.2655 17.0961 73.6556 17.1144 72.9564C17.1161 72.8827 17.3519 72.9691 17.3545 72.879C17.3813 71.9216 17.3546 70.9709 17.1946 70.0176C17.1784 69.922 16.972 70.0452 16.9435 69.9497C16.773 69.3649 16.3661 68.4396 17.2623 68.0923C17.2266 67.6962 17.1894 67.2153 17.0085 66.8609C16.892 66.6324 16.6685 66.8544 16.7637 66.5737C16.7848 66.5104 16.9809 66.5927 16.9979 66.4978C17.0689 66.0981 17.0045 65.6614 17.1047 65.266C17.1255 65.1856 17.3006 65.2075 17.3321 65.1847C17.5869 64.9932 17.164 64.6744 17.1333 64.6049C16.9037 64.0757 16.9929 63.6892 16.9861 63.1961C16.9845 63.0817 17.2189 63.217 17.2256 63.1069C17.2575 62.5359 17.2352 61.9444 17.1301 61.3853C17.1062 61.2609 16.9082 61.3753 16.8867 61.3159C16.7942 61.0538 17.1683 60.9957 17.0866 60.7444C17.0699 60.6914 16.9005 60.7213 16.8819 60.7116C16.5895 60.5604 17.0029 60.4289 17.0119 60.39C17.1349 59.8979 16.7032 59.5833 16.7632 59.1079C16.7707 59.051 16.9843 59.1793 16.9925 59.0194C17.0479 57.9543 16.9846 56.8278 16.813 55.7735C16.7866 55.6096 16.629 55.7266 16.6095 55.7163C16.305 55.5481 16.7123 55.4394 16.7274 55.3859C16.8361 54.9642 16.4952 54.5703 16.9767 54.2838C16.8039 52.498 17.0601 50.7204 16.6325 48.9494C16.6275 48.9268 16.434 48.9672 16.425 48.9223C16.3153 48.3813 16.6165 48.4852 16.9809 48.1273C17.0721 48.0371 16.6293 47.7628 16.5971 47.7386C16.4777 47.6502 16.1921 47.7419 16.169 47.7122C15.988 47.4672 16.9323 47.5072 16.9305 47.1767C16.9289 47.1663 16.7557 47.2097 16.7384 47.182C16.6839 47.0958 16.7524 47.0104 16.6924 46.926C16.5537 46.733 16.0979 46.6643 16.3626 46.3695C16.3969 46.3322 16.9286 46.3891 16.9017 46.094C16.8906 45.9764 16.8967 45.4557 16.8618 45.3097C16.8268 45.164 16.6576 45.2641 16.6501 45.2537C16.4243 44.8609 16.3319 45.0098 16.0003 44.8131C15.6705 44.6163 16.4573 44.6709 16.5448 44.5907C16.632 44.5103 16.4468 44.2224 16.3829 44.1516C16.3189 44.0809 16.2119 44.1691 16.1757 44.1062C15.9397 43.6892 16.5639 43.9232 16.6875 43.7858C16.9791 43.4618 16.3996 43.2095 16.3433 42.913C16.3279 42.8327 16.4591 42.8982 16.4711 42.8268C16.5168 42.5438 16.3378 42.3736 16.5005 42.0516C16.5272 41.9989 16.8687 41.7387 16.6165 41.5702C16.5803 41.5463 16.4386 41.6141 16.4065 41.4935C16.3584 41.3134 16.327 40.9887 16.3737 40.795C16.4082 40.6521 16.6407 40.8159 16.568 40.636C16.5355 40.556 16.4003 40.7042 16.3509 40.554C16.3015 40.4045 16.3069 40.0223 16.3113 39.8768C16.3158 39.7317 16.4904 39.8111 16.5022 39.7994C16.5694 39.7284 16.652 39.4498 16.6517 39.4252C16.6652 38.1833 16.3733 37.0382 16.4641 35.8291C16.4708 35.7342 16.648 35.7974 16.6509 35.7829C16.7232 35.4581 16.2544 35.7142 16.0971 35.4873C16.4552 35.5201 16.39 35.3861 16.4284 35.1573C16.4472 35.047 16.5854 35.1071 16.5995 35.097C16.8081 34.9335 16.5369 34.8196 16.4817 34.7903C16.2784 34.682 16.5177 34.5642 16.382 34.4905C16.2476 34.4168 16.0485 34.5863 16.0512 34.3669C16.1776 34.3053 16.5091 34.4683 16.5619 34.3017C16.7604 33.673 16.4957 32.4996 16.4687 31.9941C16.4404 31.4897 16.4623 31.3268 16.417 31.0328C16.3357 30.5019 16.5719 30.6965 16.6768 30.3668C16.7813 30.0361 16.208 30.1969 16.0843 30.1493C15.9609 30.1027 16.088 30.0517 16.0203 29.9937C15.9527 29.9358 15.8686 30.0611 15.8436 29.925C15.819 29.7889 16.0381 29.4167 16.1655 29.3685C16.4359 29.2665 16.7207 29.4342 16.6186 29.074C16.6126 29.0533 16.464 29.1205 16.4486 29.0412C16.3315 28.4111 16.3226 27.7566 16.2226 27.1273C16.2087 27.0408 16.0476 27.1182 16.0377 27.0678C15.9355 26.5433 16.2067 26.7308 16.5046 26.4434C16.1066 26.5079 15.8629 26.3489 15.8625 25.9509C15.8619 25.7116 16.034 25.7528 16.155 25.598C16.1913 25.5516 16.0737 25.3823 16.1542 25.3516C16.4168 25.2504 16.7117 25.4099 16.5917 24.9995C16.586 24.9815 16.4432 25.0388 16.4342 24.9766C16.3758 24.5744 16.6477 24.5263 16.6762 24.0916C16.6983 23.7508 16.5302 23.1448 16.5021 22.7568C16.0791 22.765 16.1769 22.3985 16.4646 22.2498C16.4513 21.9981 16.4658 21.7261 16.425 21.4827C16.4111 21.399 16.2918 21.454 16.2789 21.4434C16.076 21.2815 16.3524 21.172 16.3627 21.1176C16.4637 20.5286 16.2568 20.0486 16.4527 19.4865C16.4598 19.4665 16.736 19.4342 16.533 19.2839C16.5191 19.2742 16.3944 19.4599 16.3834 19.1954C16.3717 18.9309 16.2246 18.4323 16.3484 18.0651C16.3785 17.9763 16.5941 17.7515 16.4232 17.5711C16.4001 17.5471 16.3237 17.5734 16.281 17.5387C16.1454 17.4265 16.4137 17.3653 16.1855 17.2335C15.9572 17.1017 15.7908 16.8275 15.9472 16.4572C15.9518 16.4454 16.1607 16.3578 16.1571 16.2413C16.1514 16.0554 16.1083 15.7915 16.1098 15.5974C16.1105 15.5044 16.2377 15.5639 16.2401 15.5478C16.3091 14.9229 16.1947 14.4781 16.1473 13.8087C16.1388 13.686 16.3029 13.3333 16.1723 13.0957C16.0306 12.8348 15.4404 13.1029 15.588 12.5033C15.6491 12.2614 16.3778 11.9552 16.0022 11.5206C16.0947 10.6777 15.9128 9.89816 16.0407 9.05288C16.0464 9.01487 16.234 8.89466 16.231 8.80531C16.2263 8.67262 16.1392 8.59982 16.1336 8.50509C16.1076 8.10814 16.1803 7.74493 16.1681 7.3622C16.1638 7.2169 16.0776 7.26772 16.073 7.09441C16.0688 6.92123 16.1806 6.80573 16.1265 6.57103C16.0851 6.39378 15.8605 6.21656 15.8371 5.98128C16.0572 5.97231 16.0532 5.81071 16.1106 5.52351C16.1217 5.4683 16.1971 5.52751 16.2062 5.50139C16.2446 5.3951 16.1821 5.29675 16.2237 5.19583C16.2337 5.17129 16.3068 5.17012 16.319 5.15005C16.4249 4.97939 16.2593 4.69825 16.2316 4.64995C16.1243 4.46487 16.2172 4.37839 16.1752 4.23643C16.1336 4.0947 16.0818 4.30661 16.0569 4.14107C16.0059 3.79791 16.0193 3.35699 16.0172 3.00848C16.0169 2.86942 16.1067 2.96429 16.1088 2.94439C16.131 2.65684 16.0381 2.36607 16.2124 2.20663C15.7623 2.00726 16.2559 2.03324 16.1646 1.62222C16.1572 1.58984 15.9497 1.54865 15.918 1.67295C15.8862 1.79726 15.9507 1.9857 15.9008 2.15818C15.8895 2.19901 15.6857 2.43298 15.6725 2.46488C15.5717 2.7149 15.8964 2.75034 15.9144 2.76357C16.1071 2.91357 15.8846 3.19947 15.8675 3.27474C15.7928 3.61914 15.8369 3.91176 15.7815 4.19981C15.7456 4.38821 15.5184 4.40663 15.5222 4.55458C15.5332 5.04634 15.8593 5.21803 15.567 5.68144C15.5043 5.78081 15.246 5.68204 15.4428 6.03812C15.4548 6.06049 15.6398 6.32484 15.5166 6.47757C15.501 6.49675 15.4236 6.49615 15.4166 6.52144C15.3705 6.69097 15.4301 6.80405 15.3962 6.98874C15.3622 7.17342 15.3114 7.39548 15.3335 7.60634C15.3465 7.73342 15.4934 7.89645 15.5295 7.9573C15.6335 8.12907 15.4546 8.31323 15.5831 8.41964C15.7134 8.52694 15.9141 8.31715 15.998 8.59855C15.7836 8.60897 15.5632 8.6329 15.3468 8.64967C15.3403 9.26632 15.3994 9.87307 15.3777 10.4918C15.3747 10.5685 15.2548 10.49 15.2482 10.5723C15.2205 10.9192 15.3019 11.2222 15.2589 11.582C15.2252 11.8605 15.0842 12.1659 15.0421 12.4571C15.3096 12.635 15.2089 13.0671 15.2271 13.381C15.2335 13.491 15.3081 13.4837 15.331 13.5619C15.4159 13.8569 15.1708 13.7186 15.1299 13.7995C14.9542 14.1465 15.5188 14.1762 15.5001 14.5853C15.4997 14.607 15.1893 14.872 15.1689 14.9084C15.0391 15.1403 15.2751 14.9468 15.2952 15.0919C15.3318 15.3569 15.4038 15.541 15.3069 15.8518C15.2785 15.9425 15.0773 16.1599 15.2263 16.3359C15.2459 16.3591 15.3508 16.3463 15.3567 16.3649C15.4541 16.7023 15.1232 16.7111 15.0059 16.9039C14.8883 17.0967 15.1124 17.3946 15.1788 17.4551C15.3493 17.6137 15.2549 17.3337 15.272 17.3251C15.4753 17.2242 15.4374 17.4414 15.4524 17.6074C15.783 17.6314 15.7618 17.8635 15.4666 17.7794C15.4344 17.7698 15.4671 17.6407 15.4524 17.6074C15.1259 17.753 15.0762 18.0081 15.3796 18.2898C15.5221 18.4217 15.6921 18.297 15.6266 18.6976C15.5969 18.8794 15.3642 18.8092 15.298 18.9696C15.1457 19.3361 15.3582 19.8124 15.3184 20.1903C15.3036 20.3274 15.1744 20.1938 15.1596 20.2876C15.1194 20.5363 15.2149 20.7557 15.1597 21.0055C15.1545 21.0281 15.0163 20.9728 15.013 21.0505C14.985 21.6394 15.0658 22.1522 15.0579 22.7671C15.0541 23.0642 14.9645 23.5954 14.9749 23.9031C14.9916 24.4365 15.1976 25.0927 15.1386 25.5484C15.1003 25.8456 14.9506 25.7804 14.8455 25.9078C14.6408 26.1535 14.9912 26.5885 15.0469 26.6471C15.0488 26.6488 15.0885 26.3931 15.1647 26.5296C15.3266 26.6089 15.0478 26.6442 15.0469 26.6471C15.0823 26.6855 15.1098 27.1964 15.0789 27.2979C15.062 27.353 14.9165 27.3221 14.9104 27.3509C14.7681 28.034 14.7158 28.7183 14.7738 29.4112C14.7766 29.4234 14.9448 29.405 14.9494 29.4337C15.0183 29.8348 14.8082 30.0917 14.6784 30.4225C14.5487 30.7532 14.5841 31.0155 14.8762 31.2114C14.835 31.4609 14.9605 31.819 15.038 32.025C15.1155 32.2311 14.7763 32.2598 14.7693 32.2779C14.5451 32.8434 14.7337 33.1703 14.7559 33.7569C14.7669 34.0358 14.7084 34.5891 14.6654 34.891C14.6308 35.1297 14.7107 35.2735 14.6547 35.4934C14.6472 35.5231 14.4912 35.4931 14.485 35.5021C14.2933 35.7476 14.6784 35.6296 14.7461 35.6803C14.9923 35.864 15.1247 35.9775 15.0034 36.2918C14.9759 36.3643 14.4166 36.5754 14.3812 36.7076C14.3368 36.8794 14.5381 36.8145 14.4866 36.9944C14.4824 37.0098 14.3588 37.0066 14.3623 37.1177C14.3768 37.633 14.4403 38.1949 14.4193 38.7305C14.4168 38.8037 14.2189 38.7099 14.2119 38.8156C14.1794 39.3116 14.1767 39.8552 14.2635 40.3384C14.2855 40.4574 14.4286 40.3828 14.4703 40.4086C14.7232 40.5671 14.3492 40.7919 14.3413 40.829C14.1477 41.7137 14.4773 42.3908 14.3021 43.2925C14.2922 43.3416 13.8782 43.7195 14.2259 43.888C14.2488 43.8995 14.6057 44.0663 14.3582 44.2138C14.3426 44.2229 14.1592 44.119 14.1753 44.3004C14.1916 44.4817 14.063 44.7736 14.264 45.0229C14.3271 45.1018 14.6865 45.2883 14.3953 45.5237C14.3755 45.5391 13.716 45.9025 14.1657 46.0322C14.2398 46.0533 14.7185 46.0313 14.4699 46.3122C14.4216 46.3659 14.316 46.2685 14.2474 46.4099C14.1414 46.6266 14.2666 46.9137 14.0483 47.1801C14.0098 47.2266 13.679 47.4243 13.9256 47.5829C13.9642 47.6078 14.1262 47.5606 14.1432 47.6443C14.2249 48.0427 14.1111 48.4598 14.2187 48.8643C14.2566 49.0075 14.5206 48.9343 14.5897 49.0836C14.6588 49.233 14.7244 49.5339 14.6022 49.6902C14.4798 49.8465 14.0601 49.6757 14.0234 49.9099C13.8634 50.9279 14.1001 51.9364 14.1271 52.9529C14.131 53.1037 13.9787 52.9787 13.9734 53.2008C13.9534 54.02 13.7919 55.4342 14.1169 56.145C14.3778 56.7145 14.5853 55.9978 14.6905 56.433C14.741 56.643 14.2315 56.8703 14.2149 56.9209C14.0482 57.4162 14.2711 57.7604 14.1986 58.2061C14.1835 58.2982 13.9771 58.2079 13.9665 58.2862C13.9283 58.5538 14.0187 58.835 13.9998 59.0907C13.9908 59.2055 13.8322 59.1843 13.8436 59.2899C13.8691 59.5424 13.9341 59.7658 14.0816 60.012C14.095 60.0344 14.294 59.8831 14.3002 60.07C14.3096 60.3724 14.4551 60.7478 14.3007 61.0958C14.2542 61.199 13.8888 61.203 14.1398 61.425C14.1922 61.4715 14.6316 61.4121 14.2508 61.6706C14.1877 61.7141 13.6723 62.1484 14.0015 62.3615C14.0881 62.4177 14.4477 62.5612 14.3905 62.6853C14.3814 62.7022 14.1847 62.6347 14.1649 62.7376C14.0986 63.1002 14.1176 63.4802 14.0538 63.8526C14.0364 63.9521 13.8326 63.804 13.8131 63.9522C13.759 64.3599 13.8083 64.8689 13.8706 65.2675C13.894 65.4145 14.0645 65.3129 14.083 65.3236C14.3832 65.4956 13.9765 65.5973 13.9525 65.6543C13.8089 66.0093 13.9988 66.2796 13.9469 66.6069C13.9331 66.6972 13.7391 66.6331 13.7217 66.6511C13.5517 66.8375 13.9011 66.6987 13.9391 66.8167C14.0467 67.1473 14.0298 67.5158 14.0038 67.8501C13.9939 67.9729 13.7688 67.8349 13.7625 67.9451C13.7212 68.5973 13.7405 69.2754 13.8636 69.9119C13.8872 70.0318 14.0617 69.9564 14.1015 69.9813C14.3796 70.1535 13.9992 70.4058 13.9628 70.4639C13.7969 70.7279 13.9509 70.8304 13.9217 71.0636C13.776 72.2025 13.8767 73.6087 13.9399 74.6837C13.9461 74.7909 13.9528 74.8962 13.9599 75C14.0461 76.2524 14.1917 77.2739 14.1685 78.5076C14.1672 78.5925 13.9364 78.5069 13.9325 78.5801C13.8926 79.525 14.0015 80.4553 13.9637 81.4022C13.9611 81.4799 13.7463 81.3679 13.7353 81.4926C13.7114 81.7484 13.7345 82.0724 13.8103 82.3311C13.8468 82.4572 14.0199 82.288 14.0527 82.415C14.1293 82.7107 14.154 83.0276 14.1319 83.3313C14.1222 83.4605 13.9051 83.2655 13.9093 83.4335C13.9326 84.5778 13.9608 85.7016 14.2724 86.858C14.294 86.9373 14.6894 87.0068 14.6212 87.1754C14.5135 87.1881 14.3861 87.1874 14.2707 87.1929C14.2992 88.8587 14.5334 90.5075 14.6652 92.178C14.671 92.2484 14.4908 92.1267 14.5019 92.263C14.5649 93.0522 14.5934 93.8186 14.8112 94.6259C14.8324 94.706 15.0908 94.6649 15.0673 94.9009C15.0629 94.9425 15.0538 95.298 15.0071 95.39C15.0001 95.4024 14.8779 95.3376 14.8845 95.4521C14.9243 96.1178 15.0168 96.8155 15.1361 97.48C15.1554 97.5873 15.2503 97.4731 15.2643 97.5495C15.3589 98.0913 15.3346 98.6808 15.4571 99.1986C15.5366 99.5452 15.6758 99.4168 15.8269 99.601C15.8479 99.6271 15.8585 99.8417 15.9388 99.8528C16.14 99.8813 16.3642 99.7773 16.5794 99.82C16.6149 99.8269 16.5824 100 16.6215 100C16.6215 100 16.6215 100 16.6215 100C16.6331 100 16.6508 99.985 16.6789 99.9462C16.687 99.9344 16.7402 99.726 16.7838 99.6746C16.8139 99.6389 16.8913 99.7033 16.9332 99.6304C16.9757 99.5575 16.9123 99.4774 16.9662 99.3565C17.0214 99.2357 17.1154 99.2888 17.1564 99.0475ZM15.3873 32.9528C15.5502 33.1436 14.9476 33.1717 15.0942 32.9654C15.1019 32.9554 15.3794 32.9429 15.3873 32.9528ZM15.6979 9.86961C15.8705 10.119 15.6102 10.2897 15.4771 10.1137C15.3454 9.93781 15.6463 9.79362 15.6979 9.86961ZM15.846 7.28323C15.9724 7.57475 15.4467 7.62063 15.5582 7.30841C15.5645 7.29027 15.8388 7.2662 15.846 7.28323ZM15.8418 98.7469C15.8462 98.7495 15.8548 98.9038 15.8507 98.9075C15.7523 98.9896 15.7314 98.6812 15.8418 98.7469ZM15.9857 4.71671C16.0502 4.8077 15.9741 5.06971 15.8934 4.95665C15.8291 4.86564 15.9061 4.60336 15.9857 4.71671ZM16.02 42.905C16.0299 42.908 16.0387 43.0186 15.9829 43.0163C15.8031 43.0088 15.8542 42.8549 16.02 42.905ZM16.0101 0.354591C16.0197 0.999069 16.37 1.38982 16.3243 0.687996C16.3166 0.560898 16.2179 0.961906 16.1862 0.800148C16.1307 0.504135 16.3389 0.30761 16.2255 0.00553894C16.2057 -0.0491333 16.0095 0.317818 16.0096 0.355736C16.0098 0.355347 16.01 0.354965 16.0101 0.354591ZM16.109 33.0626C16.117 33.0665 16.1246 33.2196 16.1167 33.2232C15.9251 33.3062 15.9105 32.9977 16.109 33.0626ZM16.4442 49.3591C16.4638 49.3675 16.4829 49.7228 16.4649 49.7344C16.1042 49.9198 16.0662 49.2014 16.4442 49.3591ZM16.4907 22.7507C16.6561 22.5837 16.6728 22.3838 16.4648 22.2506C16.4768 22.4166 16.4795 22.5838 16.4907 22.7507Z" fill="#4278A6"/>
<path d="M14.9922 97.9205C14.8144 97.7322 14.644 97.4602 14.546 97.2409C14.515 97.1722 14.6007 97.1789 14.5832 97.13C14.5494 97.0341 14.4629 96.9669 14.4365 96.8693C14.4284 96.8367 14.5582 96.8293 14.5478 96.7959C14.4916 96.6125 14.3673 96.4675 14.2894 96.2901C13.9125 95.4137 13.5251 94.559 13.1584 93.6659C13.0365 93.3718 13.0197 92.9617 12.811 92.6911C12.7863 92.6597 12.6452 92.7409 12.6296 92.7393C12.3879 92.7128 12.7104 92.6245 12.7191 92.5405C12.7528 92.2072 12.6332 91.8995 12.4534 91.6639C12.3765 91.5638 12.1103 91.8018 12.2369 91.6192C12.2455 91.6066 12.428 91.5666 12.4324 91.529C12.4421 91.4436 12.3532 91.3248 12.3429 91.2658C12.3242 91.1517 12.315 91.1353 12.2738 91.0367C12.219 90.9015 12.2366 90.7074 12.1348 90.5794C12.1125 90.5524 11.9501 90.6652 11.898 90.6286C11.8459 90.592 11.8044 90.4566 11.8283 90.3957C11.8521 90.3349 12.0029 90.2963 12.0323 90.2754C12.2815 90.1009 11.8347 90.104 11.8165 90.0887C11.5032 89.8016 11.5962 89.4104 11.4593 89.0779C11.3553 88.8279 11.1739 88.5889 11.0865 88.3459C11.0858 88.3439 11.0851 88.3418 11.0844 88.3398C10.982 88.0475 10.9854 87.7636 10.8565 87.4914C10.8431 87.4626 10.6381 87.5848 10.6213 87.5498C10.4432 87.1777 10.3159 86.7882 10.3119 86.3482C10.3116 86.304 10.5229 86.2764 10.5341 86.2277C10.5988 85.9309 10.8284 85.4101 9.941 85.605C9.91075 85.4336 9.86828 85.2279 9.97956 85.0191C10.0511 84.8846 10.2941 84.89 10.1608 84.8133C10.131 84.796 9.96219 84.9018 9.93128 84.8702C9.80141 84.7371 9.79133 84.5388 9.63508 84.4183C9.60288 84.3939 9.44381 84.4679 9.41095 84.4705C9.14385 84.4889 9.48532 84.2043 9.5027 84.1651C9.63114 83.8684 9.4865 83.7474 9.41392 83.5481C9.39716 83.5018 9.20123 83.643 9.17734 83.6016C9.05642 83.3855 8.98242 83.1412 8.99051 82.8789C8.99282 82.8204 9.19488 82.7923 9.20538 82.7606C9.24928 82.6216 8.89278 82.7376 8.92837 82.6069C8.93541 82.5796 9.09737 82.5285 9.11312 82.5177C9.36032 82.3485 8.95554 82.4499 8.94102 82.4377C8.74813 82.287 9.09849 82.0008 8.96672 81.8334C8.95061 81.8135 8.77287 81.9442 8.73974 81.8834C8.51785 81.4789 8.39641 81.0057 8.38696 80.5211C8.38522 80.4459 8.55023 80.4339 8.5667 80.4225C8.82246 80.2421 8.427 80.3503 8.40444 80.3345C8.23601 80.2067 8.48945 79.9226 7.99664 79.9875C7.87132 79.2104 7.3491 78.5962 7.46265 77.7303C7.46362 77.7194 7.64974 77.6635 7.65086 77.6423C7.6661 77.3855 7.40323 77.539 7.00771 77.5318C6.9086 77.5298 7.27577 77.2555 7.30177 77.2338C7.3984 77.1541 7.67818 77.0845 7.69491 77.064C7.82367 76.8989 6.95355 77.2662 6.90235 77.1336C6.9022 77.1289 7.06989 77.0818 7.08157 77.0643C7.11833 77.0096 7.04109 77.001 7.08323 76.945C7.18118 76.8163 7.59318 76.6193 7.30031 76.6002C7.26254 76.598 6.77817 76.8186 6.75587 76.6908C6.74732 76.6398 6.65834 76.4342 6.66746 76.3629C6.67655 76.2918 6.84969 76.2687 6.85493 76.2618C7.00171 76.021 7.1113 76.0461 7.38763 75.8441C7.66221 75.6429 6.94062 75.9575 6.84661 75.958C6.75285 75.9584 6.87864 75.7745 6.92664 75.7225C6.97476 75.6704 7.0881 75.6659 7.11166 75.6273C7.26405 75.373 6.72208 75.6987 6.5854 75.6898C6.26291 75.669 6.76037 75.3527 6.76525 75.2134C6.76668 75.1756 6.6554 75.2506 6.63278 75.2265C6.54504 75.1306 6.68402 74.9961 6.48147 74.9281C6.44822 74.917 6.08966 74.9402 6.29673 74.7791C6.3266 74.7561 6.46893 74.7305 6.47939 74.6704C6.49525 74.5806 6.47241 74.4393 6.3981 74.3794C6.34323 74.3352 6.15362 74.4871 6.19236 74.3882C6.20965 74.3442 6.35886 74.3531 6.3807 74.2747C6.4026 74.1967 6.33646 74.0461 6.30913 73.9897C6.28173 73.9334 6.13232 74.0301 6.11954 74.0298C6.04582 74.0265 5.92452 73.946 5.92092 73.9361C5.70962 73.4455 5.79736 72.8798 5.51964 72.431C5.49818 72.3956 5.34382 72.4868 5.33885 72.4821C5.21977 72.3793 5.69592 72.3071 5.8056 72.158C5.47846 72.3044 5.51752 72.2266 5.44526 72.1496C5.4102 72.1126 5.29151 72.188 5.2768 72.1892C5.05704 72.2016 5.29053 72.0552 5.33705 72.023C5.5085 71.9041 5.26753 71.9461 5.38168 71.8662C5.49463 71.7868 5.70655 71.7803 5.66895 71.6938C5.54173 71.7163 5.26015 71.9046 5.18442 71.8578C4.89961 71.6807 4.95752 71.1139 4.9018 70.9021C4.84732 70.6902 4.80096 70.6333 4.79588 70.4992C4.78641 70.257 4.5983 70.4226 4.44817 70.33C4.29833 70.2369 4.85616 70.0878 4.96339 70.0228C5.07041 69.9582 4.94437 69.9852 4.99792 69.9368C5.05137 69.8886 5.14951 69.9073 5.1509 69.8437C5.15197 69.7802 4.88905 69.7132 4.76306 69.7413C4.49574 69.8012 4.25824 69.9741 4.29539 69.7924C4.29766 69.7819 4.44633 69.7534 4.44795 69.716C4.45583 69.421 4.35934 69.1565 4.35148 68.8681C4.35055 68.8284 4.51249 68.7993 4.51355 68.7755C4.52451 68.5282 4.3028 68.7039 3.98027 68.7C4.36006 68.5777 4.56077 68.4236 4.49746 68.2645C4.45975 68.1688 4.3066 68.2493 4.16954 68.2325C4.12836 68.2275 4.21048 68.1162 4.13087 68.1339C3.87091 68.1912 3.62275 68.3646 3.66845 68.1561C3.67081 68.1469 3.81258 68.1166 3.81096 68.0884C3.80079 67.9062 3.54073 67.9881 3.44474 67.8252C3.36969 67.6974 3.42874 67.393 3.3928 67.2277C3.78666 67.0736 3.63726 66.9637 3.34645 67.0114C3.31846 66.906 3.26151 66.8028 3.26043 66.6905C3.25991 66.6519 3.37945 66.6295 3.38982 66.6204C3.55215 66.4803 3.27816 66.5395 3.2599 66.5216C3.07185 66.3241 3.18714 66.0555 2.91535 65.9041C2.90553 65.8988 2.64405 65.9886 2.80844 65.8531C2.81972 65.844 2.96516 65.8718 2.93312 65.7621C2.90164 65.6522 2.95834 65.3985 2.78471 65.298C2.7426 65.2737 2.50652 65.2642 2.63621 65.1286C2.65383 65.1105 2.72894 65.0925 2.76303 65.0628C2.87099 64.9675 2.61215 65.0429 2.80286 64.9054C2.99364 64.7679 3.10426 64.5965 2.89984 64.5069C2.89366 64.5039 2.68576 64.5467 2.67044 64.4989C2.64597 64.4225 2.64375 64.3012 2.61137 64.2242C2.59583 64.1874 2.48725 64.2585 2.48251 64.2529C2.31847 64.0292 2.35346 63.8091 2.29033 63.5243C2.27857 63.4721 2.06982 63.3925 2.15304 63.249C2.24287 63.0922 2.83358 62.9795 2.60063 62.7951C2.50516 62.7214 1.77981 62.8703 2.05894 62.5571C1.83822 62.2551 1.88228 61.8763 1.62836 61.5865C1.61696 61.5734 1.42356 61.5953 1.41211 61.5585C1.39522 61.5038 1.46438 61.4423 1.45451 61.4024C1.41507 61.2343 1.2895 61.1164 1.23956 60.9591C1.2203 60.8995 1.30848 60.8877 1.28498 60.8168C1.26122 60.7461 1.13889 60.7417 1.15159 60.6278C1.16165 60.5417 1.34177 60.3874 1.32586 60.2848C1.1201 60.3631 1.09795 60.2971 0.998722 60.2038C0.979606 60.1859 0.919074 60.2376 0.90646 60.2306C0.853833 60.2024 0.896068 60.1399 0.841308 60.1151C0.828129 60.109 0.760081 60.1358 0.745557 60.1323C0.619991 60.1036 0.728633 59.9298 0.746694 59.9002C0.816608 59.7864 0.716535 59.7865 0.732884 59.7142C0.7488 59.6421 0.830773 59.7074 0.8274 59.6321C0.819857 59.4761 0.736862 59.3051 0.682997 59.1653C0.661045 59.1097 0.592886 59.1809 0.587795 59.1738C0.521146 59.0673 0.560834 58.9166 0.373543 58.9179C0.759453 58.6708 0.30543 58.8649 0.324388 58.6668C0.326061 58.6512 0.512089 58.5575 0.561385 58.5953C0.610838 58.6331 0.581088 58.7323 0.655002 58.7826C0.672023 58.7947 0.898614 58.8122 0.916018 58.82C1.04959 58.8823 0.753897 59.0173 0.739286 59.0293C0.584356 59.1609 0.836684 59.1921 0.864583 59.2158C0.989008 59.3255 0.994922 59.4587 1.09242 59.5531C1.1559 59.6149 1.36973 59.5377 1.38991 59.5981C1.45831 59.7985 1.1831 59.9884 1.52862 60.0646C1.6027 60.0809 1.82666 59.9454 1.70091 60.1607C1.69338 60.1741 1.56399 60.3485 1.70272 60.3636C1.72026 60.3655 1.79202 60.3364 1.80263 60.3439C1.87249 60.3944 1.83528 60.4617 1.89632 60.5228C1.95744 60.5839 2.04009 60.6536 2.05332 60.746C2.06156 60.8015 1.9513 60.9213 1.92755 60.959C1.85853 61.0662 2.05405 61.0732 1.95174 61.1635C1.84803 61.2548 1.62814 61.2457 1.59526 61.3893C1.79594 61.3136 2.0044 61.2412 2.20788 61.1673C2.31261 61.411 2.35486 61.6752 2.47396 61.9141C2.48901 61.9436 2.58778 61.8676 2.60704 61.898C2.68824 62.0262 2.66121 62.1774 2.75863 62.305C2.83448 62.4036 3.01427 62.473 3.09989 62.5736C2.88007 62.7441 3.04275 62.8791 3.07607 63.0112C3.08766 63.0575 3.01725 63.0823 3.00852 63.122C2.97691 63.2714 3.18235 63.125 3.23317 63.1421C3.45185 63.2152 2.93252 63.4371 3.01532 63.5935C3.01918 63.6019 3.34969 63.5922 3.37442 63.5992C3.53201 63.6434 3.28202 63.654 3.28662 63.7194C3.29499 63.8388 3.25762 63.939 3.39734 64.027C3.4382 64.0526 3.65969 64.0646 3.54956 64.1903C3.5351 64.2068 3.43564 64.2407 3.43321 64.2503C3.39676 64.4212 3.70528 64.3017 3.84499 64.335C3.98501 64.3682 3.82464 64.5704 3.77278 64.6193C3.63985 64.746 3.6827 64.5991 3.6654 64.6021C3.4606 64.6374 3.53048 64.71 3.54316 64.7818C3.2401 64.9145 3.29695 64.9992 3.55749 64.8558C3.58582 64.84 3.53485 64.8006 3.54316 64.7818C3.86946 64.7185 3.95641 64.8018 3.71989 65.0272C3.60874 65.1328 3.43097 65.1463 3.55587 65.2818C3.61255 65.3433 3.81727 65.2287 3.90444 65.2681C4.10439 65.3577 3.98341 65.6269 4.0808 65.7629C4.1165 65.8121 4.21503 65.7107 4.24381 65.7426C4.32092 65.8269 4.26734 65.95 4.35849 66.0292C4.36695 66.0363 4.48642 65.9628 4.5019 65.9926C4.62213 66.2172 4.62915 66.452 4.73488 66.6944C4.78597 66.8116 4.9541 66.9903 4.99369 67.117C5.06352 67.3361 4.97736 67.6746 5.10502 67.8345C5.18813 67.9389 5.31661 67.8572 5.43454 67.8689C5.66388 67.8908 5.40822 68.1948 5.36587 68.2389C5.36441 68.2403 5.28664 68.153 5.23779 68.2358C5.10019 68.3278 5.36465 68.2381 5.36587 68.2389C5.33918 68.2674 5.39545 68.4816 5.44033 68.5106C5.46484 68.5263 5.59494 68.4598 5.60521 68.469C5.84657 68.6887 6.00466 68.9424 6.06171 69.2405C6.06104 69.2464 5.90193 69.3017 5.90225 69.3149C5.90249 69.5006 6.1386 69.5249 6.31207 69.6086C6.4853 69.6924 6.49449 69.8103 6.2547 69.9971C6.33281 70.0814 6.27362 70.271 6.23468 70.3821C6.19571 70.4931 6.5151 70.3784 6.52454 70.383C6.82308 70.5253 6.70037 70.7259 6.77357 70.9683C6.80802 71.0838 6.95088 71.2828 7.03911 71.3873C7.10942 71.4697 7.05825 71.5568 7.14538 71.6237C7.1571 71.6328 7.29708 71.5628 7.30426 71.5641C7.52147 71.5907 7.14516 71.6869 7.09046 71.7323C6.8913 71.8973 6.78657 71.9919 6.94946 72.0722C6.98657 72.0909 7.53955 71.967 7.59348 72.0066C7.66224 72.0586 7.46502 72.1077 7.54156 72.1603C7.54794 72.1649 7.66218 72.1176 7.67671 72.1632C7.74568 72.3743 7.77664 72.6222 7.88186 72.8282C7.89582 72.8564 8.06458 72.7454 8.08795 72.7849C8.19748 72.9708 8.28697 73.1868 8.28371 73.4119C8.2823 73.4676 8.13756 73.4911 8.10297 73.5169C7.89362 73.6743 8.27674 73.6248 8.29001 73.6367C8.61128 73.9177 8.41367 74.3106 8.72052 74.6054C8.73757 74.6213 9.18232 74.618 8.88661 74.8147C8.86712 74.8278 8.56256 75.0272 8.81591 74.9939C8.83179 74.9918 8.98548 74.882 8.99948 74.9604C9.01336 75.0389 9.1795 75.1075 9.03282 75.2818C8.98686 75.3368 8.68306 75.545 8.99106 75.5306C9.01193 75.5293 9.68218 75.429 9.28553 75.6481C9.22016 75.684 8.77225 75.8534 9.04798 75.873C9.10138 75.8765 9.18385 75.7983 9.27016 75.8292C9.40316 75.8763 9.3329 76.0374 9.57812 76.0625C9.62129 76.0668 9.95997 76.0226 9.75653 76.1776C9.72463 76.2019 9.5667 76.2434 9.56435 76.2831C9.55229 76.4725 9.72458 76.5967 9.68946 76.7981C9.67722 76.8694 9.42047 76.9384 9.38018 77.0237C9.33996 77.1091 9.32722 77.2536 9.46566 77.2705C9.6043 77.2873 9.96651 77.063 10.038 77.1428C10.3495 77.4896 10.2911 77.9801 10.4287 78.3959C10.4492 78.4575 10.5705 78.351 10.6111 78.4377C10.7607 78.7572 11.1369 79.2615 10.9489 79.6662C10.7979 79.9905 10.4906 79.7817 10.4626 79.9945C10.4493 80.0972 10.9586 79.9983 10.9821 80.0123C11.216 80.148 11.0642 80.3683 11.2028 80.5192C11.2316 80.5503 11.4087 80.4375 11.4311 80.4648C11.5093 80.5574 11.4705 80.7033 11.5289 80.7983C11.5556 80.8407 11.6994 80.7733 11.7057 80.8197C11.7225 80.9299 11.6979 81.0433 11.6004 81.1964C11.5915 81.2104 11.3826 81.224 11.4068 81.3009C11.4464 81.4251 11.3714 81.6291 11.5705 81.7105C11.6301 81.7344 11.9699 81.6001 11.7725 81.782C11.7313 81.8201 11.3139 81.9599 11.7087 81.9214C11.7743 81.9153 12.3221 81.8968 12.0507 82.1044C11.9792 82.159 11.6685 82.3501 11.7414 82.3784C11.7526 82.3817 11.9244 82.2816 11.9592 82.3153C12.0787 82.4353 12.1219 82.5941 12.2407 82.719C12.2728 82.7522 12.4382 82.6172 12.4801 82.6691C12.5955 82.8117 12.6312 83.0332 12.6371 83.2155C12.639 83.2829 12.4644 83.3058 12.449 83.3169C12.1978 83.4973 12.5916 83.3865 12.623 83.4004C12.8131 83.4886 12.6801 83.6672 12.7806 83.7785C12.8079 83.8094 12.9777 83.7116 12.9967 83.7123C13.1844 83.7235 12.8378 83.7981 12.8215 83.8593C12.7745 84.0313 12.8491 84.1721 12.9267 84.2958C12.9555 84.3412 13.1425 84.2023 13.1659 84.244C13.3086 84.4889 13.3992 84.7667 13.3867 85.0666C13.384 85.1232 13.21 85.158 13.1771 85.1828C12.9465 85.355 13.34 85.3142 13.383 85.3238C13.5792 85.3675 13.4527 85.4657 13.5171 85.5479C13.8346 85.9482 13.9661 86.5469 14.0795 86.9995C14.0909 87.0446 14.1015 87.0891 14.1115 87.1332C14.2319 87.6651 14.2602 88.127 14.4791 88.6108C14.4938 88.6442 14.6944 88.5241 14.7098 88.5519C14.898 88.9142 14.9457 89.326 15.1324 89.6899C15.1472 89.7199 15.3286 89.5953 15.3588 89.641C15.4219 89.7342 15.4524 89.8721 15.4233 90.0035C15.4096 90.0675 15.2219 90.0643 15.2118 90.1272C15.188 90.2737 15.2158 90.4094 15.2849 90.5224C15.3146 90.5704 15.4849 90.4118 15.5078 90.4804C15.6693 90.9458 15.8229 91.4048 15.7187 91.9823C15.7114 92.0219 15.3555 92.1968 15.4458 92.2387C15.5478 92.2037 15.6659 92.156 15.7739 92.1153C16.014 92.7908 16.0604 93.536 16.2054 94.2517C16.2113 94.282 16.3591 94.1664 16.3705 94.225C16.4384 94.5634 16.5345 94.8799 16.4616 95.2831C16.4547 95.3229 16.2083 95.4027 16.2678 95.4882C16.2786 95.5031 16.3439 95.6416 16.4019 95.661C16.4105 95.6633 16.5135 95.592 16.5257 95.6401C16.5953 95.9206 16.621 96.2335 16.6167 96.5431C16.6159 96.5931 16.5095 96.5829 16.5087 96.6186C16.5076 96.87 16.6245 97.0962 16.5936 97.3485C16.5754 97.5164 16.4256 97.517 16.3148 97.6467C16.2995 97.6649 16.324 97.7545 16.2512 97.7888C16.069 97.8751 15.8443 97.917 15.6514 98.0141C15.6195 98.0301 15.6774 98.0871 15.6411 98.1017C15.6411 98.1017 15.6411 98.1017 15.6411 98.1017C15.6303 98.106 15.6115 98.1066 15.5792 98.1016C15.5698 98.0998 15.4871 98.0364 15.4384 98.0322C15.4047 98.0291 15.3432 98.0836 15.2926 98.0701C15.2415 98.0568 15.2876 98.0012 15.2182 97.9731C15.1477 97.9454 15.0689 98.0016 14.9922 97.9205ZM6.05885 70.8823C5.93826 71.0191 6.502 70.8061 6.333 70.7783C6.32417 70.7772 6.06466 70.8755 6.05885 70.8823ZM2.07716 61.7849C1.95692 61.9487 2.22581 61.9199 2.32125 61.8002C2.41533 61.6809 2.11294 61.7354 2.07716 61.7849ZM1.5259 60.8077C1.45519 60.9711 1.95049 60.7938 1.79709 60.7107C1.78831 60.7058 1.5299 60.7982 1.5259 60.8077ZM16.1643 97.3114C16.1606 97.3141 16.1773 97.3789 16.1817 97.3788C16.2862 97.375 16.2562 97.2441 16.1643 97.3114ZM0.985609 59.8353C0.94027 59.8957 1.05284 59.9719 1.10963 59.8968C1.15481 59.8365 1.04136 59.7605 0.985609 59.8353ZM7.06398 75.0899C7.05531 75.0948 7.06482 75.1422 7.11628 75.1205C7.28197 75.0506 7.20992 75.0082 7.06398 75.0899ZM0.264969 58.1034C0.359217 58.3642 0.0965582 58.6505 0.0266814 58.3534C0.0134621 58.2998 0.169328 58.4231 0.172803 58.3468C0.177001 58.208 -0.0476861 58.207 0.00919497 58.0442C0.0187995 58.0151 0.259677 58.0885 0.265588 58.1037C0.265383 58.1036 0.265174 58.1035 0.264969 58.1034ZM5.40655 71.1947C5.39979 71.1992 5.41725 71.2631 5.42518 71.2617C5.61622 71.2235 5.58045 71.0949 5.40655 71.1947ZM7.7029 77.8237C7.68612 77.8344 7.72526 77.9833 7.74383 77.9812C8.10827 77.921 8.02854 77.6202 7.7029 77.8237ZM3.40232 67.2211C3.2221 67.2159 3.17466 67.1423 3.34637 67.0118C3.36179 67.0825 3.38607 67.1502 3.40232 67.2211Z" fill="#4278A6"/>
<path d="M17.2338 97.9205C17.4117 97.7322 17.5821 97.4602 17.68 97.2409C17.7111 97.1722 17.6254 97.1789 17.6429 97.13C17.6767 97.0341 17.7632 96.9669 17.7895 96.8693C17.7977 96.8367 17.6679 96.8293 17.6783 96.7959C17.7344 96.6125 17.8588 96.4675 17.9367 96.2901C18.3136 95.4137 18.701 94.559 19.0677 93.6659C19.1895 93.3718 19.2064 92.9617 19.4151 92.6911C19.4398 92.6597 19.5809 92.7409 19.5965 92.7393C19.8382 92.7128 19.5157 92.6245 19.507 92.5405C19.4733 92.2072 19.5929 91.8995 19.7727 91.6639C19.8496 91.5638 20.1158 91.8018 19.9891 91.6192C19.9806 91.6066 19.7981 91.5666 19.7937 91.529C19.7839 91.4436 19.8729 91.3248 19.8831 91.2658C19.9019 91.1517 19.9111 91.1353 19.9522 91.0367C20.0071 90.9015 19.9895 90.7074 20.0913 90.5794C20.1136 90.5524 20.276 90.6652 20.3281 90.6286C20.3802 90.592 20.4217 90.4566 20.3978 90.3957C20.374 90.3349 20.2232 90.2963 20.1938 90.2754C19.9446 90.1009 20.3914 90.104 20.4096 90.0887C20.7229 89.8016 20.6298 89.4104 20.7668 89.0779C20.8708 88.8279 21.0522 88.5889 21.1396 88.3459C21.1403 88.3439 21.141 88.3418 21.1417 88.3398C21.2441 88.0475 21.2407 87.7636 21.3696 87.4914C21.383 87.4626 21.588 87.5848 21.6047 87.5498C21.7829 87.1777 21.9101 86.7882 21.9142 86.3482C21.9144 86.304 21.7032 86.2764 21.692 86.2277C21.6273 85.9309 21.3977 85.4101 22.2851 85.605C22.3153 85.4336 22.3578 85.2279 22.2465 85.0191C22.175 84.8846 21.932 84.89 22.0652 84.8133C22.095 84.796 22.2639 84.9018 22.2948 84.8702C22.4247 84.7371 22.4347 84.5388 22.591 84.4183C22.6232 84.3939 22.7823 84.4679 22.8151 84.4705C23.0822 84.4889 22.7408 84.2043 22.7234 84.1651C22.5949 83.8684 22.7396 83.7474 22.8122 83.5481C22.8289 83.5018 23.0248 83.643 23.0487 83.6016C23.1697 83.3855 23.2437 83.1412 23.2356 82.8789C23.2333 82.8204 23.0312 82.7923 23.0207 82.7606C22.9768 82.6216 23.3333 82.7376 23.2977 82.6069C23.2907 82.5796 23.1287 82.5285 23.113 82.5177C22.8658 82.3485 23.2705 82.4499 23.2851 82.4377C23.4779 82.287 23.1276 82.0008 23.2593 81.8334C23.2755 81.8135 23.4532 81.9442 23.4863 81.8834C23.7082 81.4789 23.8297 81.0057 23.8391 80.5211C23.8409 80.4459 23.6758 80.4339 23.6594 80.4225C23.4036 80.2421 23.7991 80.3503 23.8216 80.3345C23.9901 80.2067 23.7366 79.9226 24.2294 79.9875C24.3548 79.2104 24.877 78.5962 24.7634 77.7303C24.7625 77.7194 24.5763 77.6635 24.5752 77.6423C24.56 77.3855 24.8228 77.539 25.2184 77.5318C25.3175 77.5298 24.9503 77.2555 24.9243 77.2338C24.8277 77.1541 24.5479 77.0845 24.5312 77.064C24.4024 76.8989 25.2725 77.2662 25.3237 77.1336C25.3239 77.1289 25.1562 77.0818 25.1445 77.0643C25.1077 77.0096 25.185 77.001 25.1428 76.945C25.0449 76.8163 24.6329 76.6193 24.9258 76.6002C24.9635 76.598 25.4479 76.8186 25.4702 76.6908C25.4788 76.6398 25.5677 76.4342 25.5586 76.3629C25.5495 76.2918 25.3764 76.2687 25.3711 76.2618C25.2244 76.021 25.1148 76.0461 24.8384 75.8441C24.5639 75.6429 25.2854 75.9575 25.3795 75.958C25.4732 75.9584 25.3474 75.7745 25.2994 75.7225C25.2513 75.6704 25.138 75.6659 25.1144 75.6273C24.962 75.373 25.504 75.6987 25.6407 75.6898C25.9632 75.669 25.4657 75.3527 25.4608 75.2134C25.4594 75.1756 25.5707 75.2506 25.5933 75.2265C25.681 75.1306 25.5421 74.9961 25.7446 74.9281C25.7779 74.917 26.1364 74.9402 25.9293 74.7791C25.8995 74.7561 25.7571 74.7305 25.7467 74.6704C25.7308 74.5806 25.7537 74.4393 25.828 74.3794C25.8828 74.3352 26.0725 74.4871 26.0337 74.3882C26.0164 74.3442 25.8672 74.3531 25.8454 74.2747C25.8235 74.1967 25.8896 74.0461 25.9169 73.9897C25.9443 73.9334 26.0938 74.0301 26.1065 74.0298C26.1803 74.0265 26.3016 73.946 26.3052 73.9361C26.5165 73.4455 26.4287 72.8798 26.7064 72.431C26.7279 72.3956 26.8823 72.4868 26.8872 72.4821C27.0063 72.3793 26.5301 72.3071 26.4205 72.158C26.7476 72.3044 26.7086 72.2266 26.7808 72.1496C26.8159 72.1126 26.9346 72.188 26.9493 72.1892C27.169 72.2016 26.9355 72.0552 26.889 72.023C26.7176 71.9041 26.9585 71.9461 26.8444 71.8662C26.7314 71.7868 26.5195 71.7803 26.5571 71.6938C26.6843 71.7163 26.9659 71.9046 27.0417 71.8578C27.3265 71.6807 27.2686 71.1139 27.3243 70.9021C27.3787 70.6902 27.4251 70.6333 27.4302 70.4992C27.4397 70.257 27.6278 70.4226 27.7779 70.33C27.9277 70.2369 27.3699 70.0878 27.2627 70.0228C27.1557 69.9582 27.2817 69.9852 27.2282 69.9368C27.1747 69.8886 27.0766 69.9073 27.0752 69.8437C27.0741 69.7802 27.337 69.7132 27.463 69.7413C27.7303 69.8012 27.9678 69.9741 27.9307 69.7924C27.9284 69.7819 27.7797 69.7534 27.7781 69.716C27.7702 69.421 27.8667 69.1565 27.8746 68.8681C27.8755 68.8284 27.7136 68.7993 27.7125 68.7755C27.7016 68.5282 27.9233 68.7039 28.2458 68.7C27.866 68.5777 27.6653 68.4236 27.7286 68.2645C27.7663 68.1688 27.9195 68.2493 28.0565 68.2325C28.0977 68.2275 28.0156 68.1162 28.0952 68.1339C28.3552 68.1912 28.6033 68.3646 28.5576 68.1561C28.5553 68.1469 28.4135 68.1166 28.4151 68.0884C28.4253 67.9062 28.6853 67.9881 28.7813 67.8252C28.8564 67.6974 28.7973 67.393 28.8333 67.2277C28.4394 67.0736 28.5888 66.9637 28.8796 67.0114C28.9076 66.906 28.9646 66.8028 28.9656 66.6905C28.9662 66.6519 28.8466 66.6295 28.8363 66.6204C28.6739 66.4803 28.9479 66.5395 28.9662 66.5216C29.1542 66.3241 29.0389 66.0555 29.3107 65.9041C29.3205 65.8988 29.582 65.9886 29.4176 65.8531C29.4064 65.844 29.2609 65.8718 29.293 65.7621C29.3244 65.6522 29.2677 65.3985 29.4414 65.298C29.4835 65.2737 29.7196 65.2642 29.5899 65.1286C29.5722 65.1105 29.4971 65.0925 29.463 65.0628C29.3551 64.9675 29.6139 65.0429 29.4232 64.9054C29.2324 64.7679 29.1218 64.5965 29.3262 64.5069C29.3324 64.5039 29.5403 64.5467 29.5556 64.4989C29.5801 64.4225 29.5823 64.3012 29.6147 64.2242C29.6302 64.1874 29.7388 64.2585 29.7436 64.2529C29.9076 64.0292 29.8726 63.8091 29.9357 63.5243C29.9475 63.4721 30.1563 63.3925 30.073 63.249C29.9832 63.0922 29.3925 62.9795 29.6254 62.7951C29.7209 62.7214 30.4463 62.8703 30.1671 62.5571C30.3879 62.2551 30.3438 61.8763 30.5977 61.5865C30.6091 61.5734 30.8025 61.5953 30.814 61.5585C30.8309 61.5038 30.7617 61.4423 30.7716 61.4024C30.811 61.2343 30.9366 61.1164 30.9865 60.9591C31.0058 60.8995 30.9176 60.8877 30.9411 60.8168C30.9649 60.7461 31.0872 60.7417 31.0745 60.6278C31.0644 60.5417 30.8843 60.3874 30.9002 60.2848C31.106 60.3631 31.1281 60.2971 31.2274 60.2038C31.2465 60.1859 31.307 60.2376 31.3196 60.2306C31.3722 60.2024 31.33 60.1399 31.3848 60.1151C31.3979 60.109 31.466 60.1358 31.4805 60.1323C31.6061 60.1036 31.4974 59.9298 31.4794 59.9002C31.4095 59.7864 31.5095 59.7865 31.4932 59.7142C31.4773 59.6421 31.3953 59.7074 31.3987 59.6321C31.4062 59.4761 31.4892 59.3051 31.5431 59.1653C31.565 59.1097 31.6332 59.1809 31.6383 59.1738C31.7049 59.0673 31.6652 58.9166 31.8525 58.9179C31.4666 58.6708 31.9206 58.8649 31.9017 58.6668C31.9 58.6512 31.714 58.5575 31.6647 58.5953C31.6152 58.6331 31.645 58.7323 31.5711 58.7826C31.5541 58.7947 31.3275 58.8122 31.3101 58.82C31.1765 58.8823 31.4722 59.0173 31.4868 59.0293C31.6417 59.1609 31.3894 59.1921 31.3615 59.2158C31.2371 59.3255 31.2312 59.4587 31.1337 59.5531C31.0702 59.6149 30.8563 59.5377 30.8362 59.5981C30.7678 59.7985 31.043 59.9884 30.6975 60.0646C30.6234 60.0809 30.3994 59.9454 30.5252 60.1607C30.5327 60.1741 30.6621 60.3485 30.5234 60.3636C30.5058 60.3655 30.4341 60.3364 30.4234 60.3439C30.3536 60.3944 30.3908 60.4617 30.3297 60.5228C30.2686 60.5839 30.186 60.6536 30.1728 60.746C30.1645 60.8015 30.2748 60.9213 30.2985 60.959C30.3675 61.0662 30.172 61.0732 30.2743 61.1635C30.378 61.2548 30.5979 61.2457 30.6308 61.3893C30.4301 61.3136 30.2217 61.2412 30.0182 61.1673C29.9135 61.411 29.8712 61.6752 29.7521 61.9141C29.7371 61.9436 29.6383 61.8676 29.619 61.898C29.5378 62.0262 29.5649 62.1774 29.4674 62.305C29.3916 62.4036 29.2118 62.473 29.1262 62.5736C29.346 62.7441 29.1833 62.8791 29.15 63.0112C29.1384 63.0575 29.2088 63.0823 29.2176 63.122C29.2492 63.2714 29.0437 63.125 28.9929 63.1421C28.7742 63.2152 29.2935 63.4371 29.2108 63.5935C29.2069 63.6019 28.8764 63.5922 28.8517 63.5992C28.6941 63.6434 28.9441 63.654 28.9395 63.7194C28.9311 63.8388 28.9685 63.939 28.8287 64.027C28.7879 64.0526 28.5664 64.0646 28.6765 64.1903C28.691 64.2068 28.7904 64.2407 28.7929 64.2503C28.8293 64.4212 28.5208 64.3017 28.3811 64.335C28.2411 64.3682 28.4014 64.5704 28.4533 64.6193C28.5862 64.746 28.5434 64.5991 28.5607 64.6021C28.7655 64.6374 28.6956 64.71 28.6829 64.7818C28.986 64.9145 28.9291 64.9992 28.6686 64.8558C28.6403 64.84 28.6912 64.8006 28.6829 64.7818C28.3566 64.7185 28.2697 64.8018 28.5062 65.0272C28.6173 65.1328 28.7951 65.1463 28.6702 65.2818C28.6135 65.3433 28.4088 65.2287 28.3216 65.2681C28.1217 65.3577 28.2427 65.6269 28.1453 65.7629C28.1096 65.8121 28.011 65.7107 27.9823 65.7426C27.9052 65.8269 27.9587 65.95 27.8676 66.0292C27.8591 66.0363 27.7397 65.9628 27.7242 65.9926C27.6039 66.2172 27.5969 66.452 27.4912 66.6944C27.4401 66.8116 27.272 66.9903 27.2324 67.117C27.1626 67.3361 27.2487 67.6746 27.1211 67.8345C27.0379 67.9389 26.9095 67.8572 26.7915 67.8689C26.5622 67.8908 26.8179 68.1948 26.8602 68.2389C26.8617 68.2403 26.9394 68.153 26.9883 68.2358C27.1259 68.3278 26.8614 68.2381 26.8602 68.2389C26.8869 68.2674 26.8306 68.4816 26.7857 68.5106C26.7612 68.5263 26.6311 68.4598 26.6209 68.469C26.3795 68.6887 26.2214 68.9424 26.1644 69.2405C26.165 69.2464 26.3241 69.3017 26.3238 69.3149C26.3236 69.5006 26.0875 69.5249 25.914 69.6086C25.7408 69.6924 25.7316 69.8103 25.9714 69.9971C25.8933 70.0814 25.9525 70.271 25.9914 70.3821C26.0304 70.4931 25.711 70.3784 25.7015 70.383C25.403 70.5253 25.5257 70.7259 25.4525 70.9683C25.4181 71.0838 25.2752 71.2828 25.187 71.3873C25.1167 71.4697 25.1678 71.5568 25.0807 71.6237C25.069 71.6328 24.929 71.5628 24.9218 71.5641C24.7046 71.5907 25.0809 71.6869 25.1356 71.7323C25.3348 71.8973 25.4395 71.9919 25.2766 72.0722C25.2395 72.0909 24.6865 71.967 24.6326 72.0066C24.5638 72.0586 24.7611 72.1077 24.6845 72.1603C24.6781 72.1649 24.5639 72.1176 24.5494 72.1632C24.4804 72.3743 24.4494 72.6222 24.3442 72.8282C24.3303 72.8564 24.1615 72.7454 24.1381 72.7849C24.0286 72.9708 23.9391 73.1868 23.9424 73.4119C23.9438 73.4676 24.0885 73.4911 24.1231 73.5169C24.3325 73.6743 23.9493 73.6248 23.9361 73.6367C23.6148 73.9177 23.8124 74.3106 23.5056 74.6054C23.4885 74.6213 23.0438 74.618 23.3395 74.8147C23.359 74.8278 23.6635 75.0272 23.4102 74.9939C23.3943 74.9918 23.2406 74.882 23.2266 74.9604C23.2127 75.0389 23.0466 75.1075 23.1932 75.2818C23.2392 75.3368 23.543 75.545 23.235 75.5306C23.2141 75.5293 22.5439 75.429 22.9405 75.6481C23.0059 75.684 23.4538 75.8534 23.1781 75.873C23.1247 75.8765 23.0422 75.7983 22.9559 75.8292C22.8229 75.8763 22.8932 76.0374 22.648 76.0625C22.6048 76.0668 22.2661 76.0226 22.4695 76.1776C22.5014 76.2019 22.6594 76.2434 22.6617 76.2831C22.6738 76.4725 22.5015 76.5967 22.5366 76.7981C22.5489 76.8694 22.8056 76.9384 22.8459 77.0237C22.8861 77.1091 22.8989 77.2536 22.7604 77.2705C22.6218 77.2873 22.2596 77.063 22.1881 77.1428C21.8766 77.4896 21.9349 77.9801 21.7974 78.3959C21.7769 78.4575 21.6555 78.351 21.615 78.4377C21.4654 78.7572 21.0892 79.2615 21.2771 79.6662C21.4282 79.9905 21.7355 79.7817 21.7635 79.9945C21.7767 80.0972 21.2675 79.9983 21.244 80.0123C21.01 80.148 21.1619 80.3683 21.0232 80.5192C20.9945 80.5503 20.8174 80.4375 20.795 80.4648C20.7167 80.5574 20.7556 80.7033 20.6971 80.7983C20.6705 80.8407 20.5266 80.7733 20.5203 80.8197C20.5035 80.9299 20.5281 81.0433 20.6257 81.1964C20.6346 81.2104 20.8435 81.224 20.8193 81.3009C20.7797 81.4251 20.8547 81.6291 20.6556 81.7105C20.596 81.7344 20.2562 81.6001 20.4536 81.782C20.4948 81.8201 20.9122 81.9599 20.5173 81.9214C20.4518 81.9153 19.904 81.8968 20.1754 82.1044C20.2468 82.159 20.5576 82.3501 20.4847 82.3784C20.4735 82.3817 20.3017 82.2816 20.2669 82.3153C20.1473 82.4353 20.1042 82.5941 19.9854 82.719C19.9533 82.7522 19.7879 82.6172 19.746 82.6691C19.6306 82.8117 19.5949 83.0332 19.589 83.2155C19.5871 83.2829 19.7617 83.3058 19.7771 83.3169C20.0283 83.4973 19.6345 83.3865 19.603 83.4004C19.4129 83.4886 19.546 83.6672 19.4454 83.7785C19.4181 83.8094 19.2484 83.7116 19.2293 83.7123C19.0417 83.7235 19.3882 83.7981 19.4046 83.8593C19.4516 84.0313 19.377 84.1721 19.2993 84.2958C19.2706 84.3412 19.0836 84.2023 19.0602 84.244C18.9175 84.4889 18.8269 84.7667 18.8394 85.0666C18.8421 85.1232 19.0161 85.158 19.049 85.1828C19.2796 85.355 18.8861 85.3142 18.8431 85.3238C18.6468 85.3675 18.7734 85.4657 18.7089 85.5479C18.3915 85.9482 18.26 86.5469 18.1466 86.9995C18.1352 87.0446 18.1246 87.0891 18.1146 87.1332C17.9942 87.6651 17.9659 88.127 17.747 88.6108C17.7322 88.6442 17.5317 88.5241 17.5163 88.5519C17.3281 88.9142 17.2804 89.326 17.0937 89.6899C17.0789 89.7199 16.8975 89.5953 16.8673 89.641C16.8042 89.7342 16.7737 89.8721 16.8027 90.0035C16.8164 90.0675 17.0042 90.0643 17.0143 90.1272C17.0381 90.2737 17.0103 90.4094 16.9412 90.5224C16.9115 90.5704 16.7412 90.4118 16.7182 90.4804C16.5568 90.9458 16.4032 91.4048 16.5073 91.9823C16.5147 92.0219 16.8706 92.1968 16.7803 92.2387C16.6783 92.2037 16.5602 92.156 16.4522 92.1153C16.212 92.7908 16.1657 93.536 16.0207 94.2517C16.0148 94.282 15.867 94.1664 15.8556 94.225C15.7877 94.5634 15.6916 94.8799 15.7645 95.2831C15.7714 95.3229 16.0178 95.4027 15.9583 95.4882C15.9475 95.5031 15.8822 95.6416 15.8241 95.661C15.8156 95.6633 15.7126 95.592 15.7003 95.6401C15.6308 95.9206 15.605 96.2335 15.6094 96.5431C15.6102 96.5931 15.7165 96.5829 15.7174 96.6186C15.7184 96.87 15.6016 97.0962 15.6324 97.3485C15.6507 97.5164 15.8005 97.517 15.9112 97.6467C15.9266 97.6649 15.9021 97.7545 15.9748 97.7888C16.1571 97.8751 16.3818 97.917 16.5747 98.0141C16.6065 98.0301 16.5487 98.0871 16.585 98.1017C16.585 98.1017 16.585 98.1017 16.585 98.1017C16.5957 98.106 16.6146 98.1066 16.6469 98.1016C16.6563 98.0998 16.739 98.0364 16.7876 98.0322C16.8213 98.0291 16.8829 98.0836 16.9335 98.0701C16.9846 98.0568 16.9385 98.0012 17.0079 97.9731C17.0784 97.9454 17.1572 98.0016 17.2338 97.9205ZM26.1672 70.8823C26.2878 71.0191 25.7241 70.8061 25.8931 70.7783C25.9019 70.7772 26.1614 70.8755 26.1672 70.8823ZM30.1489 61.7849C30.2692 61.9487 30.0003 61.9199 29.9048 61.8002C29.8107 61.6809 30.1131 61.7354 30.1489 61.7849ZM30.7002 60.8077C30.7709 60.9711 30.2756 60.7938 30.429 60.7107C30.4378 60.7058 30.6962 60.7982 30.7002 60.8077ZM16.0618 97.3114C16.0655 97.3141 16.0488 97.3789 16.0444 97.3788C15.9399 97.375 15.9698 97.2441 16.0618 97.3114ZM31.2405 59.8353C31.2858 59.8957 31.1732 59.9719 31.1164 59.8968C31.0713 59.8365 31.1847 59.7605 31.2405 59.8353ZM25.1621 75.0899C25.1708 75.0948 25.1613 75.1422 25.1098 75.1205C24.9441 75.0506 25.0162 75.0082 25.1621 75.0899ZM31.9611 58.1034C31.8669 58.3642 32.1295 58.6505 32.1994 58.3534C32.2126 58.2998 32.0567 58.4231 32.0533 58.3468C32.0491 58.208 32.2738 58.207 32.2169 58.0442C32.2073 58.0151 31.9664 58.0885 31.9605 58.1037C31.9607 58.1036 31.9609 58.1035 31.9611 58.1034ZM26.8195 71.1947C26.8263 71.1992 26.8088 71.2631 26.8009 71.2617C26.6099 71.2235 26.6456 71.0949 26.8195 71.1947ZM24.5232 77.8237C24.54 77.8344 24.5008 77.9833 24.4822 77.9812C24.1178 77.921 24.1975 77.6202 24.5232 77.8237ZM28.8238 67.2211C29.004 67.2159 29.0514 67.1423 28.8797 67.0118C28.8643 67.0825 28.84 67.1502 28.8238 67.2211Z" fill="#4278A6"/>
</svg>
