<svg width="27" height="14" viewBox="0 0 27 14" fill="none" xmlns="http://www.w3.org/2000/svg">
<path d="M1 3.60567C1.1545 2.98454 3 1.60567 4.21385 1.3012C7.95185 0.363607 9.40128 1.801 12.717 3.06472C15.0302 3.94637 18.7254 3.09514 20.0028 2.65271C21.5218 2.12657 23.717 0.467112 25.3394 1.27233" stroke="#343434" stroke-width="2" stroke-linecap="round"/>
<path d="M1 8.21135C1.1545 7.59022 3 6.21135 4.21385 5.90688C7.95185 4.96929 9.40128 6.40668 12.717 7.6704C15.0302 8.55205 18.7254 7.70083 20.0028 7.25839C21.5218 6.73225 23.717 5.07279 25.3394 5.87801" stroke="#343434" stroke-width="2" stroke-linecap="round"/>
<path d="M1 12.817C1.1545 12.1959 3 10.817 4.21385 10.5125C7.95185 9.57496 9.40128 11.0123 12.717 12.2761C15.0302 13.1577 18.7254 12.3065 20.0028 11.8641C21.5218 11.3379 23.717 9.67846 25.3394 10.4837" stroke="#343434" stroke-width="2" stroke-linecap="round"/>
</svg>
